<?xml version="1.0" encoding="utf-8" standalone="no"?>
<!DOCTYPE svg PUBLIC "-//W3C//DTD SVG 1.1//EN"
  "http://www.w3.org/Graphics/SVG/1.1/DTD/svg11.dtd">
<svg xmlns:xlink="http://www.w3.org/1999/xlink" width="864pt" height="432pt" viewBox="0 0 864 432" xmlns="http://www.w3.org/2000/svg" version="1.1">
 <metadata>
  <rdf:RDF xmlns:dc="http://purl.org/dc/elements/1.1/" xmlns:cc="http://creativecommons.org/ns#" xmlns:rdf="http://www.w3.org/1999/02/22-rdf-syntax-ns#">
   <cc:Work>
    <dc:type rdf:resource="http://purl.org/dc/dcmitype/StillImage"/>
    <dc:date>2024-12-03T21:44:44.600645</dc:date>
    <dc:format>image/svg+xml</dc:format>
    <dc:creator>
     <cc:Agent>
      <dc:title>Matplotlib v3.9.2, https://matplotlib.org/</dc:title>
     </cc:Agent>
    </dc:creator>
   </cc:Work>
  </rdf:RDF>
 </metadata>
 <defs>
  <style type="text/css">*{stroke-linejoin: round; stroke-linecap: butt}</style>
 </defs>
 <g id="figure_1">
  <g id="patch_1">
   <path d="M 0 432 
L 864 432 
L 864 0 
L 0 0 
z
" style="fill: #ffffff"/>
  </g>
  <g id="axes_1">
   <g id="patch_2">
    <path d="M 50.6 331.428688 
L 853.2 331.428688 
L 853.2 27.6 
L 50.6 27.6 
z
" style="fill: #ffffff"/>
   </g>
   <g id="matplotlib.axis_1">
    <g id="xtick_1">
     <g id="line2d_1">
      <defs>
       <path id="m109f717581" d="M 0 0 
L 0 3.5 
" style="stroke: #000000; stroke-width: 0.8"/>
      </defs>
      <g>
       <use xlink:href="#m109f717581" x="100.7625" y="331.428688" style="stroke: #000000; stroke-width: 0.8"/>
      </g>
     </g>
     <g id="text_1">
      <!-- left_upper_arm -->
      <g transform="translate(45.850134 397.046735) rotate(-45) scale(0.1 -0.1)">
       <defs>
        <path id="DejaVuSans-6c" d="M 603 4863 
L 1178 4863 
L 1178 0 
L 603 0 
L 603 4863 
z
" transform="scale(0.015625)"/>
        <path id="DejaVuSans-65" d="M 3597 1894 
L 3597 1613 
L 953 1613 
Q 991 1019 1311 708 
Q 1631 397 2203 397 
Q 2534 397 2845 478 
Q 3156 559 3463 722 
L 3463 178 
Q 3153 47 2828 -22 
Q 2503 -91 2169 -91 
Q 1331 -91 842 396 
Q 353 884 353 1716 
Q 353 2575 817 3079 
Q 1281 3584 2069 3584 
Q 2775 3584 3186 3129 
Q 3597 2675 3597 1894 
z
M 3022 2063 
Q 3016 2534 2758 2815 
Q 2500 3097 2075 3097 
Q 1594 3097 1305 2825 
Q 1016 2553 972 2059 
L 3022 2063 
z
" transform="scale(0.015625)"/>
        <path id="DejaVuSans-66" d="M 2375 4863 
L 2375 4384 
L 1825 4384 
Q 1516 4384 1395 4259 
Q 1275 4134 1275 3809 
L 1275 3500 
L 2222 3500 
L 2222 3053 
L 1275 3053 
L 1275 0 
L 697 0 
L 697 3053 
L 147 3053 
L 147 3500 
L 697 3500 
L 697 3744 
Q 697 4328 969 4595 
Q 1241 4863 1831 4863 
L 2375 4863 
z
" transform="scale(0.015625)"/>
        <path id="DejaVuSans-74" d="M 1172 4494 
L 1172 3500 
L 2356 3500 
L 2356 3053 
L 1172 3053 
L 1172 1153 
Q 1172 725 1289 603 
Q 1406 481 1766 481 
L 2356 481 
L 2356 0 
L 1766 0 
Q 1100 0 847 248 
Q 594 497 594 1153 
L 594 3053 
L 172 3053 
L 172 3500 
L 594 3500 
L 594 4494 
L 1172 4494 
z
" transform="scale(0.015625)"/>
        <path id="DejaVuSans-5f" d="M 3263 -1063 
L 3263 -1509 
L -63 -1509 
L -63 -1063 
L 3263 -1063 
z
" transform="scale(0.015625)"/>
        <path id="DejaVuSans-75" d="M 544 1381 
L 544 3500 
L 1119 3500 
L 1119 1403 
Q 1119 906 1312 657 
Q 1506 409 1894 409 
Q 2359 409 2629 706 
Q 2900 1003 2900 1516 
L 2900 3500 
L 3475 3500 
L 3475 0 
L 2900 0 
L 2900 538 
Q 2691 219 2414 64 
Q 2138 -91 1772 -91 
Q 1169 -91 856 284 
Q 544 659 544 1381 
z
M 1991 3584 
L 1991 3584 
z
" transform="scale(0.015625)"/>
        <path id="DejaVuSans-70" d="M 1159 525 
L 1159 -1331 
L 581 -1331 
L 581 3500 
L 1159 3500 
L 1159 2969 
Q 1341 3281 1617 3432 
Q 1894 3584 2278 3584 
Q 2916 3584 3314 3078 
Q 3713 2572 3713 1747 
Q 3713 922 3314 415 
Q 2916 -91 2278 -91 
Q 1894 -91 1617 61 
Q 1341 213 1159 525 
z
M 3116 1747 
Q 3116 2381 2855 2742 
Q 2594 3103 2138 3103 
Q 1681 3103 1420 2742 
Q 1159 2381 1159 1747 
Q 1159 1113 1420 752 
Q 1681 391 2138 391 
Q 2594 391 2855 752 
Q 3116 1113 3116 1747 
z
" transform="scale(0.015625)"/>
        <path id="DejaVuSans-72" d="M 2631 2963 
Q 2534 3019 2420 3045 
Q 2306 3072 2169 3072 
Q 1681 3072 1420 2755 
Q 1159 2438 1159 1844 
L 1159 0 
L 581 0 
L 581 3500 
L 1159 3500 
L 1159 2956 
Q 1341 3275 1631 3429 
Q 1922 3584 2338 3584 
Q 2397 3584 2469 3576 
Q 2541 3569 2628 3553 
L 2631 2963 
z
" transform="scale(0.015625)"/>
        <path id="DejaVuSans-61" d="M 2194 1759 
Q 1497 1759 1228 1600 
Q 959 1441 959 1056 
Q 959 750 1161 570 
Q 1363 391 1709 391 
Q 2188 391 2477 730 
Q 2766 1069 2766 1631 
L 2766 1759 
L 2194 1759 
z
M 3341 1997 
L 3341 0 
L 2766 0 
L 2766 531 
Q 2569 213 2275 61 
Q 1981 -91 1556 -91 
Q 1019 -91 701 211 
Q 384 513 384 1019 
Q 384 1609 779 1909 
Q 1175 2209 1959 2209 
L 2766 2209 
L 2766 2266 
Q 2766 2663 2505 2880 
Q 2244 3097 1772 3097 
Q 1472 3097 1187 3025 
Q 903 2953 641 2809 
L 641 3341 
Q 956 3463 1253 3523 
Q 1550 3584 1831 3584 
Q 2591 3584 2966 3190 
Q 3341 2797 3341 1997 
z
" transform="scale(0.015625)"/>
        <path id="DejaVuSans-6d" d="M 3328 2828 
Q 3544 3216 3844 3400 
Q 4144 3584 4550 3584 
Q 5097 3584 5394 3201 
Q 5691 2819 5691 2113 
L 5691 0 
L 5113 0 
L 5113 2094 
Q 5113 2597 4934 2840 
Q 4756 3084 4391 3084 
Q 3944 3084 3684 2787 
Q 3425 2491 3425 1978 
L 3425 0 
L 2847 0 
L 2847 2094 
Q 2847 2600 2669 2842 
Q 2491 3084 2119 3084 
Q 1678 3084 1418 2786 
Q 1159 2488 1159 1978 
L 1159 0 
L 581 0 
L 581 3500 
L 1159 3500 
L 1159 2956 
Q 1356 3278 1631 3431 
Q 1906 3584 2284 3584 
Q 2666 3584 2933 3390 
Q 3200 3197 3328 2828 
z
" transform="scale(0.015625)"/>
       </defs>
       <use xlink:href="#DejaVuSans-6c"/>
       <use xlink:href="#DejaVuSans-65" x="27.783203"/>
       <use xlink:href="#DejaVuSans-66" x="89.306641"/>
       <use xlink:href="#DejaVuSans-74" x="122.761719"/>
       <use xlink:href="#DejaVuSans-5f" x="161.970703"/>
       <use xlink:href="#DejaVuSans-75" x="211.970703"/>
       <use xlink:href="#DejaVuSans-70" x="275.349609"/>
       <use xlink:href="#DejaVuSans-70" x="338.826172"/>
       <use xlink:href="#DejaVuSans-65" x="402.302734"/>
       <use xlink:href="#DejaVuSans-72" x="463.826172"/>
       <use xlink:href="#DejaVuSans-5f" x="504.939453"/>
       <use xlink:href="#DejaVuSans-61" x="554.939453"/>
       <use xlink:href="#DejaVuSans-72" x="616.21875"/>
       <use xlink:href="#DejaVuSans-6d" x="655.582031"/>
      </g>
     </g>
    </g>
    <g id="xtick_2">
     <g id="line2d_2">
      <g>
       <use xlink:href="#m109f717581" x="201.0875" y="331.428688" style="stroke: #000000; stroke-width: 0.8"/>
      </g>
     </g>
     <g id="text_2">
      <!-- left_lower_arm -->
      <g transform="translate(147.560622 395.661248) rotate(-45) scale(0.1 -0.1)">
       <defs>
        <path id="DejaVuSans-6f" d="M 1959 3097 
Q 1497 3097 1228 2736 
Q 959 2375 959 1747 
Q 959 1119 1226 758 
Q 1494 397 1959 397 
Q 2419 397 2687 759 
Q 2956 1122 2956 1747 
Q 2956 2369 2687 2733 
Q 2419 3097 1959 3097 
z
M 1959 3584 
Q 2709 3584 3137 3096 
Q 3566 2609 3566 1747 
Q 3566 888 3137 398 
Q 2709 -91 1959 -91 
Q 1206 -91 779 398 
Q 353 888 353 1747 
Q 353 2609 779 3096 
Q 1206 3584 1959 3584 
z
" transform="scale(0.015625)"/>
        <path id="DejaVuSans-77" d="M 269 3500 
L 844 3500 
L 1563 769 
L 2278 3500 
L 2956 3500 
L 3675 769 
L 4391 3500 
L 4966 3500 
L 4050 0 
L 3372 0 
L 2619 2869 
L 1863 0 
L 1184 0 
L 269 3500 
z
" transform="scale(0.015625)"/>
       </defs>
       <use xlink:href="#DejaVuSans-6c"/>
       <use xlink:href="#DejaVuSans-65" x="27.783203"/>
       <use xlink:href="#DejaVuSans-66" x="89.306641"/>
       <use xlink:href="#DejaVuSans-74" x="122.761719"/>
       <use xlink:href="#DejaVuSans-5f" x="161.970703"/>
       <use xlink:href="#DejaVuSans-6c" x="211.970703"/>
       <use xlink:href="#DejaVuSans-6f" x="239.753906"/>
       <use xlink:href="#DejaVuSans-77" x="300.935547"/>
       <use xlink:href="#DejaVuSans-65" x="382.722656"/>
       <use xlink:href="#DejaVuSans-72" x="444.246094"/>
       <use xlink:href="#DejaVuSans-5f" x="485.359375"/>
       <use xlink:href="#DejaVuSans-61" x="535.359375"/>
       <use xlink:href="#DejaVuSans-72" x="596.638672"/>
       <use xlink:href="#DejaVuSans-6d" x="636.001953"/>
      </g>
     </g>
    </g>
    <g id="xtick_3">
     <g id="line2d_3">
      <g>
       <use xlink:href="#m109f717581" x="301.4125" y="331.428688" style="stroke: #000000; stroke-width: 0.8"/>
      </g>
     </g>
     <g id="text_3">
      <!-- right_upper_arm -->
      <g transform="translate(241.33936 402.20751) rotate(-45) scale(0.1 -0.1)">
       <defs>
        <path id="DejaVuSans-69" d="M 603 3500 
L 1178 3500 
L 1178 0 
L 603 0 
L 603 3500 
z
M 603 4863 
L 1178 4863 
L 1178 4134 
L 603 4134 
L 603 4863 
z
" transform="scale(0.015625)"/>
        <path id="DejaVuSans-67" d="M 2906 1791 
Q 2906 2416 2648 2759 
Q 2391 3103 1925 3103 
Q 1463 3103 1205 2759 
Q 947 2416 947 1791 
Q 947 1169 1205 825 
Q 1463 481 1925 481 
Q 2391 481 2648 825 
Q 2906 1169 2906 1791 
z
M 3481 434 
Q 3481 -459 3084 -895 
Q 2688 -1331 1869 -1331 
Q 1566 -1331 1297 -1286 
Q 1028 -1241 775 -1147 
L 775 -588 
Q 1028 -725 1275 -790 
Q 1522 -856 1778 -856 
Q 2344 -856 2625 -561 
Q 2906 -266 2906 331 
L 2906 616 
Q 2728 306 2450 153 
Q 2172 0 1784 0 
Q 1141 0 747 490 
Q 353 981 353 1791 
Q 353 2603 747 3093 
Q 1141 3584 1784 3584 
Q 2172 3584 2450 3431 
Q 2728 3278 2906 2969 
L 2906 3500 
L 3481 3500 
L 3481 434 
z
" transform="scale(0.015625)"/>
        <path id="DejaVuSans-68" d="M 3513 2113 
L 3513 0 
L 2938 0 
L 2938 2094 
Q 2938 2591 2744 2837 
Q 2550 3084 2163 3084 
Q 1697 3084 1428 2787 
Q 1159 2491 1159 1978 
L 1159 0 
L 581 0 
L 581 4863 
L 1159 4863 
L 1159 2956 
Q 1366 3272 1645 3428 
Q 1925 3584 2291 3584 
Q 2894 3584 3203 3211 
Q 3513 2838 3513 2113 
z
" transform="scale(0.015625)"/>
       </defs>
       <use xlink:href="#DejaVuSans-72"/>
       <use xlink:href="#DejaVuSans-69" x="41.113281"/>
       <use xlink:href="#DejaVuSans-67" x="68.896484"/>
       <use xlink:href="#DejaVuSans-68" x="132.373047"/>
       <use xlink:href="#DejaVuSans-74" x="195.751953"/>
       <use xlink:href="#DejaVuSans-5f" x="234.960938"/>
       <use xlink:href="#DejaVuSans-75" x="284.960938"/>
       <use xlink:href="#DejaVuSans-70" x="348.339844"/>
       <use xlink:href="#DejaVuSans-70" x="411.816406"/>
       <use xlink:href="#DejaVuSans-65" x="475.292969"/>
       <use xlink:href="#DejaVuSans-72" x="536.816406"/>
       <use xlink:href="#DejaVuSans-5f" x="577.929688"/>
       <use xlink:href="#DejaVuSans-61" x="627.929688"/>
       <use xlink:href="#DejaVuSans-72" x="689.208984"/>
       <use xlink:href="#DejaVuSans-6d" x="728.572266"/>
      </g>
     </g>
    </g>
    <g id="xtick_4">
     <g id="line2d_4">
      <g>
       <use xlink:href="#m109f717581" x="401.7375" y="331.428688" style="stroke: #000000; stroke-width: 0.8"/>
      </g>
     </g>
     <g id="text_4">
      <!-- right_lower_arm -->
      <g transform="translate(343.049847 400.822023) rotate(-45) scale(0.1 -0.1)">
       <use xlink:href="#DejaVuSans-72"/>
       <use xlink:href="#DejaVuSans-69" x="41.113281"/>
       <use xlink:href="#DejaVuSans-67" x="68.896484"/>
       <use xlink:href="#DejaVuSans-68" x="132.373047"/>
       <use xlink:href="#DejaVuSans-74" x="195.751953"/>
       <use xlink:href="#DejaVuSans-5f" x="234.960938"/>
       <use xlink:href="#DejaVuSans-6c" x="284.960938"/>
       <use xlink:href="#DejaVuSans-6f" x="312.744141"/>
       <use xlink:href="#DejaVuSans-77" x="373.925781"/>
       <use xlink:href="#DejaVuSans-65" x="455.712891"/>
       <use xlink:href="#DejaVuSans-72" x="517.236328"/>
       <use xlink:href="#DejaVuSans-5f" x="558.349609"/>
       <use xlink:href="#DejaVuSans-61" x="608.349609"/>
       <use xlink:href="#DejaVuSans-72" x="669.628906"/>
       <use xlink:href="#DejaVuSans-6d" x="708.992188"/>
      </g>
     </g>
    </g>
    <g id="xtick_5">
     <g id="line2d_5">
      <g>
       <use xlink:href="#m109f717581" x="502.0625" y="331.428688" style="stroke: #000000; stroke-width: 0.8"/>
      </g>
     </g>
     <g id="text_5">
      <!-- left_upper_leg -->
      <g transform="translate(450.349792 393.847077) rotate(-45) scale(0.1 -0.1)">
       <use xlink:href="#DejaVuSans-6c"/>
       <use xlink:href="#DejaVuSans-65" x="27.783203"/>
       <use xlink:href="#DejaVuSans-66" x="89.306641"/>
       <use xlink:href="#DejaVuSans-74" x="122.761719"/>
       <use xlink:href="#DejaVuSans-5f" x="161.970703"/>
       <use xlink:href="#DejaVuSans-75" x="211.970703"/>
       <use xlink:href="#DejaVuSans-70" x="275.349609"/>
       <use xlink:href="#DejaVuSans-70" x="338.826172"/>
       <use xlink:href="#DejaVuSans-65" x="402.302734"/>
       <use xlink:href="#DejaVuSans-72" x="463.826172"/>
       <use xlink:href="#DejaVuSans-5f" x="504.939453"/>
       <use xlink:href="#DejaVuSans-6c" x="554.939453"/>
       <use xlink:href="#DejaVuSans-65" x="582.722656"/>
       <use xlink:href="#DejaVuSans-67" x="644.246094"/>
      </g>
     </g>
    </g>
    <g id="xtick_6">
     <g id="line2d_6">
      <g>
       <use xlink:href="#m109f717581" x="602.3875" y="331.428688" style="stroke: #000000; stroke-width: 0.8"/>
      </g>
     </g>
     <g id="text_6">
      <!-- left_lower_leg -->
      <g transform="translate(552.06028 392.46159) rotate(-45) scale(0.1 -0.1)">
       <use xlink:href="#DejaVuSans-6c"/>
       <use xlink:href="#DejaVuSans-65" x="27.783203"/>
       <use xlink:href="#DejaVuSans-66" x="89.306641"/>
       <use xlink:href="#DejaVuSans-74" x="122.761719"/>
       <use xlink:href="#DejaVuSans-5f" x="161.970703"/>
       <use xlink:href="#DejaVuSans-6c" x="211.970703"/>
       <use xlink:href="#DejaVuSans-6f" x="239.753906"/>
       <use xlink:href="#DejaVuSans-77" x="300.935547"/>
       <use xlink:href="#DejaVuSans-65" x="382.722656"/>
       <use xlink:href="#DejaVuSans-72" x="444.246094"/>
       <use xlink:href="#DejaVuSans-5f" x="485.359375"/>
       <use xlink:href="#DejaVuSans-6c" x="535.359375"/>
       <use xlink:href="#DejaVuSans-65" x="563.142578"/>
       <use xlink:href="#DejaVuSans-67" x="624.666016"/>
      </g>
     </g>
    </g>
    <g id="xtick_7">
     <g id="line2d_7">
      <g>
       <use xlink:href="#m109f717581" x="702.7125" y="331.428688" style="stroke: #000000; stroke-width: 0.8"/>
      </g>
     </g>
     <g id="text_7">
      <!-- right_upper_leg -->
      <g transform="translate(645.839018 399.007852) rotate(-45) scale(0.1 -0.1)">
       <use xlink:href="#DejaVuSans-72"/>
       <use xlink:href="#DejaVuSans-69" x="41.113281"/>
       <use xlink:href="#DejaVuSans-67" x="68.896484"/>
       <use xlink:href="#DejaVuSans-68" x="132.373047"/>
       <use xlink:href="#DejaVuSans-74" x="195.751953"/>
       <use xlink:href="#DejaVuSans-5f" x="234.960938"/>
       <use xlink:href="#DejaVuSans-75" x="284.960938"/>
       <use xlink:href="#DejaVuSans-70" x="348.339844"/>
       <use xlink:href="#DejaVuSans-70" x="411.816406"/>
       <use xlink:href="#DejaVuSans-65" x="475.292969"/>
       <use xlink:href="#DejaVuSans-72" x="536.816406"/>
       <use xlink:href="#DejaVuSans-5f" x="577.929688"/>
       <use xlink:href="#DejaVuSans-6c" x="627.929688"/>
       <use xlink:href="#DejaVuSans-65" x="655.712891"/>
       <use xlink:href="#DejaVuSans-67" x="717.236328"/>
      </g>
     </g>
    </g>
    <g id="xtick_8">
     <g id="line2d_8">
      <g>
       <use xlink:href="#m109f717581" x="803.0375" y="331.428688" style="stroke: #000000; stroke-width: 0.8"/>
      </g>
     </g>
     <g id="text_8">
      <!-- right_lower_leg -->
      <g transform="translate(747.549505 397.622364) rotate(-45) scale(0.1 -0.1)">
       <use xlink:href="#DejaVuSans-72"/>
       <use xlink:href="#DejaVuSans-69" x="41.113281"/>
       <use xlink:href="#DejaVuSans-67" x="68.896484"/>
       <use xlink:href="#DejaVuSans-68" x="132.373047"/>
       <use xlink:href="#DejaVuSans-74" x="195.751953"/>
       <use xlink:href="#DejaVuSans-5f" x="234.960938"/>
       <use xlink:href="#DejaVuSans-6c" x="284.960938"/>
       <use xlink:href="#DejaVuSans-6f" x="312.744141"/>
       <use xlink:href="#DejaVuSans-77" x="373.925781"/>
       <use xlink:href="#DejaVuSans-65" x="455.712891"/>
       <use xlink:href="#DejaVuSans-72" x="517.236328"/>
       <use xlink:href="#DejaVuSans-5f" x="558.349609"/>
       <use xlink:href="#DejaVuSans-6c" x="608.349609"/>
       <use xlink:href="#DejaVuSans-65" x="636.132812"/>
       <use xlink:href="#DejaVuSans-67" x="697.65625"/>
      </g>
     </g>
    </g>
    <g id="text_9">
     <!-- Partes -->
     <g transform="translate(433.239063 416.99286) scale(0.12 -0.12)">
      <defs>
       <path id="DejaVuSans-50" d="M 1259 4147 
L 1259 2394 
L 2053 2394 
Q 2494 2394 2734 2622 
Q 2975 2850 2975 3272 
Q 2975 3691 2734 3919 
Q 2494 4147 2053 4147 
L 1259 4147 
z
M 628 4666 
L 2053 4666 
Q 2838 4666 3239 4311 
Q 3641 3956 3641 3272 
Q 3641 2581 3239 2228 
Q 2838 1875 2053 1875 
L 1259 1875 
L 1259 0 
L 628 0 
L 628 4666 
z
" transform="scale(0.015625)"/>
       <path id="DejaVuSans-73" d="M 2834 3397 
L 2834 2853 
Q 2591 2978 2328 3040 
Q 2066 3103 1784 3103 
Q 1356 3103 1142 2972 
Q 928 2841 928 2578 
Q 928 2378 1081 2264 
Q 1234 2150 1697 2047 
L 1894 2003 
Q 2506 1872 2764 1633 
Q 3022 1394 3022 966 
Q 3022 478 2636 193 
Q 2250 -91 1575 -91 
Q 1294 -91 989 -36 
Q 684 19 347 128 
L 347 722 
Q 666 556 975 473 
Q 1284 391 1588 391 
Q 1994 391 2212 530 
Q 2431 669 2431 922 
Q 2431 1156 2273 1281 
Q 2116 1406 1581 1522 
L 1381 1569 
Q 847 1681 609 1914 
Q 372 2147 372 2553 
Q 372 3047 722 3315 
Q 1072 3584 1716 3584 
Q 2034 3584 2315 3537 
Q 2597 3491 2834 3397 
z
" transform="scale(0.015625)"/>
      </defs>
      <use xlink:href="#DejaVuSans-50"/>
      <use xlink:href="#DejaVuSans-61" x="55.802734"/>
      <use xlink:href="#DejaVuSans-72" x="117.082031"/>
      <use xlink:href="#DejaVuSans-74" x="158.195312"/>
      <use xlink:href="#DejaVuSans-65" x="197.404297"/>
      <use xlink:href="#DejaVuSans-73" x="258.927734"/>
     </g>
    </g>
   </g>
   <g id="matplotlib.axis_2">
    <g id="ytick_1">
     <g id="line2d_9">
      <path d="M 50.6 317.630533 
L 853.2 317.630533 
" clip-path="url(#p10cae9b3a6)" style="fill: none; stroke-dasharray: 2.96,1.28; stroke-dashoffset: 0; stroke: #b0b0b0; stroke-opacity: 0.7; stroke-width: 0.8"/>
     </g>
     <g id="line2d_10">
      <defs>
       <path id="mf271bf672f" d="M 0 0 
L -3.5 0 
" style="stroke: #000000; stroke-width: 0.8"/>
      </defs>
      <g>
       <use xlink:href="#mf271bf672f" x="50.6" y="317.630533" style="stroke: #000000; stroke-width: 0.8"/>
      </g>
     </g>
     <g id="text_10">
      <!-- 0.0 -->
      <g transform="translate(27.696875 321.429751) scale(0.1 -0.1)">
       <defs>
        <path id="DejaVuSans-30" d="M 2034 4250 
Q 1547 4250 1301 3770 
Q 1056 3291 1056 2328 
Q 1056 1369 1301 889 
Q 1547 409 2034 409 
Q 2525 409 2770 889 
Q 3016 1369 3016 2328 
Q 3016 3291 2770 3770 
Q 2525 4250 2034 4250 
z
M 2034 4750 
Q 2819 4750 3233 4129 
Q 3647 3509 3647 2328 
Q 3647 1150 3233 529 
Q 2819 -91 2034 -91 
Q 1250 -91 836 529 
Q 422 1150 422 2328 
Q 422 3509 836 4129 
Q 1250 4750 2034 4750 
z
" transform="scale(0.015625)"/>
        <path id="DejaVuSans-2e" d="M 684 794 
L 1344 794 
L 1344 0 
L 684 0 
L 684 794 
z
" transform="scale(0.015625)"/>
       </defs>
       <use xlink:href="#DejaVuSans-30"/>
       <use xlink:href="#DejaVuSans-2e" x="63.623047"/>
       <use xlink:href="#DejaVuSans-30" x="95.410156"/>
      </g>
     </g>
    </g>
    <g id="ytick_2">
     <g id="line2d_11">
      <path d="M 50.6 268.277377 
L 853.2 268.277377 
" clip-path="url(#p10cae9b3a6)" style="fill: none; stroke-dasharray: 2.96,1.28; stroke-dashoffset: 0; stroke: #b0b0b0; stroke-opacity: 0.7; stroke-width: 0.8"/>
     </g>
     <g id="line2d_12">
      <g>
       <use xlink:href="#mf271bf672f" x="50.6" y="268.277377" style="stroke: #000000; stroke-width: 0.8"/>
      </g>
     </g>
     <g id="text_11">
      <!-- 0.5 -->
      <g transform="translate(27.696875 272.076596) scale(0.1 -0.1)">
       <defs>
        <path id="DejaVuSans-35" d="M 691 4666 
L 3169 4666 
L 3169 4134 
L 1269 4134 
L 1269 2991 
Q 1406 3038 1543 3061 
Q 1681 3084 1819 3084 
Q 2600 3084 3056 2656 
Q 3513 2228 3513 1497 
Q 3513 744 3044 326 
Q 2575 -91 1722 -91 
Q 1428 -91 1123 -41 
Q 819 9 494 109 
L 494 744 
Q 775 591 1075 516 
Q 1375 441 1709 441 
Q 2250 441 2565 725 
Q 2881 1009 2881 1497 
Q 2881 1984 2565 2268 
Q 2250 2553 1709 2553 
Q 1456 2553 1204 2497 
Q 953 2441 691 2322 
L 691 4666 
z
" transform="scale(0.015625)"/>
       </defs>
       <use xlink:href="#DejaVuSans-30"/>
       <use xlink:href="#DejaVuSans-2e" x="63.623047"/>
       <use xlink:href="#DejaVuSans-35" x="95.410156"/>
      </g>
     </g>
    </g>
    <g id="ytick_3">
     <g id="line2d_13">
      <path d="M 50.6 218.924221 
L 853.2 218.924221 
" clip-path="url(#p10cae9b3a6)" style="fill: none; stroke-dasharray: 2.96,1.28; stroke-dashoffset: 0; stroke: #b0b0b0; stroke-opacity: 0.7; stroke-width: 0.8"/>
     </g>
     <g id="line2d_14">
      <g>
       <use xlink:href="#mf271bf672f" x="50.6" y="218.924221" style="stroke: #000000; stroke-width: 0.8"/>
      </g>
     </g>
     <g id="text_12">
      <!-- 1.0 -->
      <g transform="translate(27.696875 222.72344) scale(0.1 -0.1)">
       <defs>
        <path id="DejaVuSans-31" d="M 794 531 
L 1825 531 
L 1825 4091 
L 703 3866 
L 703 4441 
L 1819 4666 
L 2450 4666 
L 2450 531 
L 3481 531 
L 3481 0 
L 794 0 
L 794 531 
z
" transform="scale(0.015625)"/>
       </defs>
       <use xlink:href="#DejaVuSans-31"/>
       <use xlink:href="#DejaVuSans-2e" x="63.623047"/>
       <use xlink:href="#DejaVuSans-30" x="95.410156"/>
      </g>
     </g>
    </g>
    <g id="ytick_4">
     <g id="line2d_15">
      <path d="M 50.6 169.571065 
L 853.2 169.571065 
" clip-path="url(#p10cae9b3a6)" style="fill: none; stroke-dasharray: 2.96,1.28; stroke-dashoffset: 0; stroke: #b0b0b0; stroke-opacity: 0.7; stroke-width: 0.8"/>
     </g>
     <g id="line2d_16">
      <g>
       <use xlink:href="#mf271bf672f" x="50.6" y="169.571065" style="stroke: #000000; stroke-width: 0.8"/>
      </g>
     </g>
     <g id="text_13">
      <!-- 1.5 -->
      <g transform="translate(27.696875 173.370284) scale(0.1 -0.1)">
       <use xlink:href="#DejaVuSans-31"/>
       <use xlink:href="#DejaVuSans-2e" x="63.623047"/>
       <use xlink:href="#DejaVuSans-35" x="95.410156"/>
      </g>
     </g>
    </g>
    <g id="ytick_5">
     <g id="line2d_17">
      <path d="M 50.6 120.217909 
L 853.2 120.217909 
" clip-path="url(#p10cae9b3a6)" style="fill: none; stroke-dasharray: 2.96,1.28; stroke-dashoffset: 0; stroke: #b0b0b0; stroke-opacity: 0.7; stroke-width: 0.8"/>
     </g>
     <g id="line2d_18">
      <g>
       <use xlink:href="#mf271bf672f" x="50.6" y="120.217909" style="stroke: #000000; stroke-width: 0.8"/>
      </g>
     </g>
     <g id="text_14">
      <!-- 2.0 -->
      <g transform="translate(27.696875 124.017128) scale(0.1 -0.1)">
       <defs>
        <path id="DejaVuSans-32" d="M 1228 531 
L 3431 531 
L 3431 0 
L 469 0 
L 469 531 
Q 828 903 1448 1529 
Q 2069 2156 2228 2338 
Q 2531 2678 2651 2914 
Q 2772 3150 2772 3378 
Q 2772 3750 2511 3984 
Q 2250 4219 1831 4219 
Q 1534 4219 1204 4116 
Q 875 4013 500 3803 
L 500 4441 
Q 881 4594 1212 4672 
Q 1544 4750 1819 4750 
Q 2544 4750 2975 4387 
Q 3406 4025 3406 3419 
Q 3406 3131 3298 2873 
Q 3191 2616 2906 2266 
Q 2828 2175 2409 1742 
Q 1991 1309 1228 531 
z
" transform="scale(0.015625)"/>
       </defs>
       <use xlink:href="#DejaVuSans-32"/>
       <use xlink:href="#DejaVuSans-2e" x="63.623047"/>
       <use xlink:href="#DejaVuSans-30" x="95.410156"/>
      </g>
     </g>
    </g>
    <g id="ytick_6">
     <g id="line2d_19">
      <path d="M 50.6 70.864753 
L 853.2 70.864753 
" clip-path="url(#p10cae9b3a6)" style="fill: none; stroke-dasharray: 2.96,1.28; stroke-dashoffset: 0; stroke: #b0b0b0; stroke-opacity: 0.7; stroke-width: 0.8"/>
     </g>
     <g id="line2d_20">
      <g>
       <use xlink:href="#mf271bf672f" x="50.6" y="70.864753" style="stroke: #000000; stroke-width: 0.8"/>
      </g>
     </g>
     <g id="text_15">
      <!-- 2.5 -->
      <g transform="translate(27.696875 74.663972) scale(0.1 -0.1)">
       <use xlink:href="#DejaVuSans-32"/>
       <use xlink:href="#DejaVuSans-2e" x="63.623047"/>
       <use xlink:href="#DejaVuSans-35" x="95.410156"/>
      </g>
     </g>
    </g>
    <g id="text_16">
     <!-- Erro -->
     <g transform="translate(21.20125 191.669969) rotate(-90) scale(0.12 -0.12)">
      <defs>
       <path id="DejaVuSans-45" d="M 628 4666 
L 3578 4666 
L 3578 4134 
L 1259 4134 
L 1259 2753 
L 3481 2753 
L 3481 2222 
L 1259 2222 
L 1259 531 
L 3634 531 
L 3634 0 
L 628 0 
L 628 4666 
z
" transform="scale(0.015625)"/>
      </defs>
      <use xlink:href="#DejaVuSans-45"/>
      <use xlink:href="#DejaVuSans-72" x="63.183594"/>
      <use xlink:href="#DejaVuSans-72" x="102.546875"/>
      <use xlink:href="#DejaVuSans-6f" x="141.410156"/>
     </g>
    </g>
   </g>
   <g id="patch_3">
    <path d="M 60.6325 315.234486 
L 140.8925 315.234486 
L 140.8925 308.226067 
L 60.6325 308.226067 
L 60.6325 315.234486 
z
" clip-path="url(#p10cae9b3a6)" style="fill: #4a326e; stroke: #303030; stroke-linejoin: miter"/>
   </g>
   <g id="line2d_21">
    <path d="M 100.7625 315.234486 
L 100.7625 316.40154 
" clip-path="url(#p10cae9b3a6)" style="fill: none; stroke: #303030"/>
   </g>
   <g id="line2d_22">
    <path d="M 100.7625 308.226067 
L 100.7625 302.795862 
" clip-path="url(#p10cae9b3a6)" style="fill: none; stroke: #303030"/>
   </g>
   <g id="line2d_23">
    <path d="M 80.6975 316.40154 
L 120.8275 316.40154 
" clip-path="url(#p10cae9b3a6)" style="fill: none; stroke: #303030; stroke-linecap: square"/>
   </g>
   <g id="line2d_24">
    <path d="M 80.6975 302.795862 
L 120.8275 302.795862 
" clip-path="url(#p10cae9b3a6)" style="fill: none; stroke: #303030; stroke-linecap: square"/>
   </g>
   <g id="line2d_25">
    <defs>
     <path id="mbcb0b0d8b7" d="M 0 3 
C 0.795609 3 1.55874 2.683901 2.12132 2.12132 
C 2.683901 1.55874 3 0.795609 3 0 
C 3 -0.795609 2.683901 -1.55874 2.12132 -2.12132 
C 1.55874 -2.683901 0.795609 -3 0 -3 
C -0.795609 -3 -1.55874 -2.683901 -2.12132 -2.12132 
C -2.683901 -1.55874 -3 -0.795609 -3 0 
C -3 0.795609 -2.683901 1.55874 -2.12132 2.12132 
C -1.55874 2.683901 -0.795609 3 0 3 
z
" style="stroke: #303030"/>
    </defs>
    <g clip-path="url(#p10cae9b3a6)">
     <use xlink:href="#mbcb0b0d8b7" x="100.7625" y="287.278934" style="fill-opacity: 0; stroke: #303030"/>
    </g>
   </g>
   <g id="patch_4">
    <path d="M 160.9575 307.274513 
L 241.2175 307.274513 
L 241.2175 302.582978 
L 160.9575 302.582978 
L 160.9575 307.274513 
z
" clip-path="url(#p10cae9b3a6)" style="fill: #485080; stroke: #303030; stroke-linejoin: miter"/>
   </g>
   <g id="line2d_26">
    <path d="M 201.0875 307.274513 
L 201.0875 310.875764 
" clip-path="url(#p10cae9b3a6)" style="fill: none; stroke: #303030"/>
   </g>
   <g id="line2d_27">
    <path d="M 201.0875 302.582978 
L 201.0875 300.115196 
" clip-path="url(#p10cae9b3a6)" style="fill: none; stroke: #303030"/>
   </g>
   <g id="line2d_28">
    <path d="M 181.0225 310.875764 
L 221.1525 310.875764 
" clip-path="url(#p10cae9b3a6)" style="fill: none; stroke: #303030; stroke-linecap: square"/>
   </g>
   <g id="line2d_29">
    <path d="M 181.0225 300.115196 
L 221.1525 300.115196 
" clip-path="url(#p10cae9b3a6)" style="fill: none; stroke: #303030; stroke-linecap: square"/>
   </g>
   <g id="line2d_30">
    <g clip-path="url(#p10cae9b3a6)">
     <use xlink:href="#mbcb0b0d8b7" x="201.0875" y="316.46491" style="fill-opacity: 0; stroke: #303030"/>
     <use xlink:href="#mbcb0b0d8b7" x="201.0875" y="316.996542" style="fill-opacity: 0; stroke: #303030"/>
     <use xlink:href="#mbcb0b0d8b7" x="201.0875" y="249.759875" style="fill-opacity: 0; stroke: #303030"/>
     <use xlink:href="#mbcb0b0d8b7" x="201.0875" y="295.46376" style="fill-opacity: 0; stroke: #303030"/>
    </g>
   </g>
   <g id="patch_5">
    <path d="M 261.2825 312.966758 
L 341.5425 312.966758 
L 341.5425 306.225314 
L 261.2825 306.225314 
L 261.2825 312.966758 
z
" clip-path="url(#p10cae9b3a6)" style="fill: #3c6682; stroke: #303030; stroke-linejoin: miter"/>
   </g>
   <g id="line2d_31">
    <path d="M 301.4125 312.966758 
L 301.4125 317.372317 
" clip-path="url(#p10cae9b3a6)" style="fill: none; stroke: #303030"/>
   </g>
   <g id="line2d_32">
    <path d="M 301.4125 306.225314 
L 301.4125 301.551768 
" clip-path="url(#p10cae9b3a6)" style="fill: none; stroke: #303030"/>
   </g>
   <g id="line2d_33">
    <path d="M 281.3475 317.372317 
L 321.4775 317.372317 
" clip-path="url(#p10cae9b3a6)" style="fill: none; stroke: #303030; stroke-linecap: square"/>
   </g>
   <g id="line2d_34">
    <path d="M 281.3475 301.551768 
L 321.4775 301.551768 
" clip-path="url(#p10cae9b3a6)" style="fill: none; stroke: #303030; stroke-linecap: square"/>
   </g>
   <g id="line2d_35">
    <g clip-path="url(#p10cae9b3a6)">
     <use xlink:href="#mbcb0b0d8b7" x="301.4125" y="292.207735" style="fill-opacity: 0; stroke: #303030"/>
     <use xlink:href="#mbcb0b0d8b7" x="301.4125" y="292.461805" style="fill-opacity: 0; stroke: #303030"/>
    </g>
   </g>
   <g id="patch_6">
    <path d="M 361.6075 290.342729 
L 441.8675 290.342729 
L 441.8675 247.224209 
L 361.6075 247.224209 
L 361.6075 290.342729 
z
" clip-path="url(#p10cae9b3a6)" style="fill: #337881; stroke: #303030; stroke-linejoin: miter"/>
   </g>
   <g id="line2d_36">
    <path d="M 401.7375 290.342729 
L 401.7375 312.885325 
" clip-path="url(#p10cae9b3a6)" style="fill: none; stroke: #303030"/>
   </g>
   <g id="line2d_37">
    <path d="M 401.7375 247.224209 
L 401.7375 206.540823 
" clip-path="url(#p10cae9b3a6)" style="fill: none; stroke: #303030"/>
   </g>
   <g id="line2d_38">
    <path d="M 381.6725 312.885325 
L 421.8025 312.885325 
" clip-path="url(#p10cae9b3a6)" style="fill: none; stroke: #303030; stroke-linecap: square"/>
   </g>
   <g id="line2d_39">
    <path d="M 381.6725 206.540823 
L 421.8025 206.540823 
" clip-path="url(#p10cae9b3a6)" style="fill: none; stroke: #303030; stroke-linecap: square"/>
   </g>
   <g id="line2d_40">
    <g clip-path="url(#p10cae9b3a6)">
     <use xlink:href="#mbcb0b0d8b7" x="401.7375" y="41.410395" style="fill-opacity: 0; stroke: #303030"/>
     <use xlink:href="#mbcb0b0d8b7" x="401.7375" y="179.984285" style="fill-opacity: 0; stroke: #303030"/>
    </g>
   </g>
   <g id="patch_7">
    <path d="M 461.9325 308.935888 
L 542.1925 308.935888 
L 542.1925 295.63166 
L 461.9325 295.63166 
L 461.9325 308.935888 
z
" clip-path="url(#p10cae9b3a6)" style="fill: #2e8e7e; stroke: #303030; stroke-linejoin: miter"/>
   </g>
   <g id="line2d_41">
    <path d="M 502.0625 308.935888 
L 502.0625 317.618293 
" clip-path="url(#p10cae9b3a6)" style="fill: none; stroke: #303030"/>
   </g>
   <g id="line2d_42">
    <path d="M 502.0625 295.63166 
L 502.0625 283.411522 
" clip-path="url(#p10cae9b3a6)" style="fill: none; stroke: #303030"/>
   </g>
   <g id="line2d_43">
    <path d="M 481.9975 317.618293 
L 522.1275 317.618293 
" clip-path="url(#p10cae9b3a6)" style="fill: none; stroke: #303030; stroke-linecap: square"/>
   </g>
   <g id="line2d_44">
    <path d="M 481.9975 283.411522 
L 522.1275 283.411522 
" clip-path="url(#p10cae9b3a6)" style="fill: none; stroke: #303030; stroke-linecap: square"/>
   </g>
   <g id="line2d_45"/>
   <g id="patch_8">
    <path d="M 562.2575 309.664563 
L 642.5175 309.664563 
L 642.5175 295.083371 
L 562.2575 295.083371 
L 562.2575 309.664563 
z
" clip-path="url(#p10cae9b3a6)" style="fill: #45a778; stroke: #303030; stroke-linejoin: miter"/>
   </g>
   <g id="line2d_46">
    <path d="M 602.3875 309.664563 
L 602.3875 314.764694 
" clip-path="url(#p10cae9b3a6)" style="fill: none; stroke: #303030"/>
   </g>
   <g id="line2d_47">
    <path d="M 602.3875 295.083371 
L 602.3875 289.024358 
" clip-path="url(#p10cae9b3a6)" style="fill: none; stroke: #303030"/>
   </g>
   <g id="line2d_48">
    <path d="M 582.3225 314.764694 
L 622.4525 314.764694 
" clip-path="url(#p10cae9b3a6)" style="fill: none; stroke: #303030; stroke-linecap: square"/>
   </g>
   <g id="line2d_49">
    <path d="M 582.3225 289.024358 
L 622.4525 289.024358 
" clip-path="url(#p10cae9b3a6)" style="fill: none; stroke: #303030; stroke-linecap: square"/>
   </g>
   <g id="line2d_50">
    <g clip-path="url(#p10cae9b3a6)">
     <use xlink:href="#mbcb0b0d8b7" x="602.3875" y="253.965258" style="fill-opacity: 0; stroke: #303030"/>
    </g>
   </g>
   <g id="patch_9">
    <path d="M 662.5825 308.032849 
L 742.8425 308.032849 
L 742.8425 298.801563 
L 662.5825 298.801563 
L 662.5825 308.032849 
z
" clip-path="url(#p10cae9b3a6)" style="fill: #77bf67; stroke: #303030; stroke-linejoin: miter"/>
   </g>
   <g id="line2d_51">
    <path d="M 702.7125 308.032849 
L 702.7125 313.848798 
" clip-path="url(#p10cae9b3a6)" style="fill: none; stroke: #303030"/>
   </g>
   <g id="line2d_52">
    <path d="M 702.7125 298.801563 
L 702.7125 292.098467 
" clip-path="url(#p10cae9b3a6)" style="fill: none; stroke: #303030"/>
   </g>
   <g id="line2d_53">
    <path d="M 682.6475 313.848798 
L 722.7775 313.848798 
" clip-path="url(#p10cae9b3a6)" style="fill: none; stroke: #303030; stroke-linecap: square"/>
   </g>
   <g id="line2d_54">
    <path d="M 682.6475 292.098467 
L 722.7775 292.098467 
" clip-path="url(#p10cae9b3a6)" style="fill: none; stroke: #303030; stroke-linecap: square"/>
   </g>
   <g id="line2d_55">
    <g clip-path="url(#p10cae9b3a6)">
     <use xlink:href="#mbcb0b0d8b7" x="702.7125" y="281.117094" style="fill-opacity: 0; stroke: #303030"/>
     <use xlink:href="#mbcb0b0d8b7" x="702.7125" y="279.649824" style="fill-opacity: 0; stroke: #303030"/>
     <use xlink:href="#mbcb0b0d8b7" x="702.7125" y="274.447212" style="fill-opacity: 0; stroke: #303030"/>
    </g>
   </g>
   <g id="patch_10">
    <path d="M 762.9075 307.618332 
L 843.1675 307.618332 
L 843.1675 295.430077 
L 762.9075 295.430077 
L 762.9075 307.618332 
z
" clip-path="url(#p10cae9b3a6)" style="fill: #a9c741; stroke: #303030; stroke-linejoin: miter"/>
   </g>
   <g id="line2d_56">
    <path d="M 803.0375 307.618332 
L 803.0375 317.577823 
" clip-path="url(#p10cae9b3a6)" style="fill: none; stroke: #303030"/>
   </g>
   <g id="line2d_57">
    <path d="M 803.0375 295.430077 
L 803.0375 278.59189 
" clip-path="url(#p10cae9b3a6)" style="fill: none; stroke: #303030"/>
   </g>
   <g id="line2d_58">
    <path d="M 782.9725 317.577823 
L 823.1025 317.577823 
" clip-path="url(#p10cae9b3a6)" style="fill: none; stroke: #303030; stroke-linecap: square"/>
   </g>
   <g id="line2d_59">
    <path d="M 782.9725 278.59189 
L 823.1025 278.59189 
" clip-path="url(#p10cae9b3a6)" style="fill: none; stroke: #303030; stroke-linecap: square"/>
   </g>
   <g id="line2d_60">
    <g clip-path="url(#p10cae9b3a6)">
     <use xlink:href="#mbcb0b0d8b7" x="803.0375" y="273.810063" style="fill-opacity: 0; stroke: #303030"/>
    </g>
   </g>
   <g id="line2d_61">
    <path d="M 60.6325 312.443368 
L 140.8925 312.443368 
" clip-path="url(#p10cae9b3a6)" style="fill: none; stroke: #303030"/>
   </g>
   <g id="line2d_62">
    <path d="M 160.9575 304.868103 
L 241.2175 304.868103 
" clip-path="url(#p10cae9b3a6)" style="fill: none; stroke: #303030"/>
   </g>
   <g id="line2d_63">
    <path d="M 261.2825 311.451172 
L 341.5425 311.451172 
" clip-path="url(#p10cae9b3a6)" style="fill: none; stroke: #303030"/>
   </g>
   <g id="line2d_64">
    <path d="M 361.6075 267.164512 
L 441.8675 267.164512 
" clip-path="url(#p10cae9b3a6)" style="fill: none; stroke: #303030"/>
   </g>
   <g id="line2d_65">
    <path d="M 461.9325 302.483753 
L 542.1925 302.483753 
" clip-path="url(#p10cae9b3a6)" style="fill: none; stroke: #303030"/>
   </g>
   <g id="line2d_66">
    <path d="M 562.2575 304.91637 
L 642.5175 304.91637 
" clip-path="url(#p10cae9b3a6)" style="fill: none; stroke: #303030"/>
   </g>
   <g id="line2d_67">
    <path d="M 662.5825 302.984145 
L 742.8425 302.984145 
" clip-path="url(#p10cae9b3a6)" style="fill: none; stroke: #303030"/>
   </g>
   <g id="line2d_68">
    <path d="M 762.9075 302.653775 
L 843.1675 302.653775 
" clip-path="url(#p10cae9b3a6)" style="fill: none; stroke: #303030"/>
   </g>
   <g id="patch_11">
    <path d="M 50.6 331.428688 
L 50.6 27.6 
" style="fill: none; stroke: #000000; stroke-width: 0.8; stroke-linejoin: miter; stroke-linecap: square"/>
   </g>
   <g id="patch_12">
    <path d="M 853.2 331.428688 
L 853.2 27.6 
" style="fill: none; stroke: #000000; stroke-width: 0.8; stroke-linejoin: miter; stroke-linecap: square"/>
   </g>
   <g id="patch_13">
    <path d="M 50.6 331.428688 
L 853.2 331.428688 
" style="fill: none; stroke: #000000; stroke-width: 0.8; stroke-linejoin: miter; stroke-linecap: square"/>
   </g>
   <g id="patch_14">
    <path d="M 50.6 27.6 
L 853.2 27.6 
" style="fill: none; stroke: #000000; stroke-width: 0.8; stroke-linejoin: miter; stroke-linecap: square"/>
   </g>
   <g id="text_17">
    <!-- Distribuição de Erros por Partes (YOLO PPE) - Viridis -->
    <g transform="translate(271.51 21.6) scale(0.14 -0.14)">
     <defs>
      <path id="DejaVuSans-44" d="M 1259 4147 
L 1259 519 
L 2022 519 
Q 2988 519 3436 956 
Q 3884 1394 3884 2338 
Q 3884 3275 3436 3711 
Q 2988 4147 2022 4147 
L 1259 4147 
z
M 628 4666 
L 1925 4666 
Q 3281 4666 3915 4102 
Q 4550 3538 4550 2338 
Q 4550 1131 3912 565 
Q 3275 0 1925 0 
L 628 0 
L 628 4666 
z
" transform="scale(0.015625)"/>
      <path id="DejaVuSans-62" d="M 3116 1747 
Q 3116 2381 2855 2742 
Q 2594 3103 2138 3103 
Q 1681 3103 1420 2742 
Q 1159 2381 1159 1747 
Q 1159 1113 1420 752 
Q 1681 391 2138 391 
Q 2594 391 2855 752 
Q 3116 1113 3116 1747 
z
M 1159 2969 
Q 1341 3281 1617 3432 
Q 1894 3584 2278 3584 
Q 2916 3584 3314 3078 
Q 3713 2572 3713 1747 
Q 3713 922 3314 415 
Q 2916 -91 2278 -91 
Q 1894 -91 1617 61 
Q 1341 213 1159 525 
L 1159 0 
L 581 0 
L 581 4863 
L 1159 4863 
L 1159 2969 
z
" transform="scale(0.015625)"/>
      <path id="DejaVuSans-e7" d="M 3122 3366 
L 3122 2828 
Q 2878 2963 2633 3030 
Q 2388 3097 2138 3097 
Q 1578 3097 1268 2742 
Q 959 2388 959 1747 
Q 959 1106 1268 751 
Q 1578 397 2138 397 
Q 2388 397 2633 464 
Q 2878 531 3122 666 
L 3122 134 
Q 2881 22 2623 -34 
Q 2366 -91 2075 -91 
Q 1284 -91 818 406 
Q 353 903 353 1747 
Q 353 2603 823 3093 
Q 1294 3584 2113 3584 
Q 2378 3584 2631 3529 
Q 2884 3475 3122 3366 
z
M 2311 0 
Q 2482 -194 2566 -358 
Q 2651 -522 2651 -672 
Q 2651 -950 2463 -1092 
Q 2276 -1234 1907 -1234 
Q 1764 -1234 1628 -1215 
Q 1492 -1197 1357 -1159 
L 1357 -750 
Q 1464 -803 1579 -826 
Q 1695 -850 1842 -850 
Q 2026 -850 2120 -775 
Q 2214 -700 2214 -556 
Q 2214 -463 2146 -327 
Q 2079 -191 1939 0 
L 2311 0 
z
" transform="scale(0.015625)"/>
      <path id="DejaVuSans-e3" d="M 2194 1759 
Q 1497 1759 1228 1600 
Q 959 1441 959 1056 
Q 959 750 1161 570 
Q 1363 391 1709 391 
Q 2188 391 2477 730 
Q 2766 1069 2766 1631 
L 2766 1759 
L 2194 1759 
z
M 3341 1997 
L 3341 0 
L 2766 0 
L 2766 531 
Q 2569 213 2275 61 
Q 1981 -91 1556 -91 
Q 1019 -91 701 211 
Q 384 513 384 1019 
Q 384 1609 779 1909 
Q 1175 2209 1959 2209 
L 2766 2209 
L 2766 2266 
Q 2766 2663 2505 2880 
Q 2244 3097 1772 3097 
Q 1472 3097 1187 3025 
Q 903 2953 641 2809 
L 641 3341 
Q 956 3463 1253 3523 
Q 1550 3584 1831 3584 
Q 2591 3584 2966 3190 
Q 3341 2797 3341 1997 
z
M 1844 4281 
L 1665 4453 
Q 1597 4516 1545 4545 
Q 1494 4575 1453 4575 
Q 1334 4575 1278 4461 
Q 1222 4347 1215 4091 
L 825 4091 
Q 831 4513 990 4742 
Q 1150 4972 1434 4972 
Q 1553 4972 1653 4928 
Q 1753 4884 1869 4781 
L 2047 4609 
Q 2115 4547 2167 4517 
Q 2219 4488 2259 4488 
Q 2378 4488 2434 4602 
Q 2490 4716 2497 4972 
L 2887 4972 
Q 2881 4550 2721 4320 
Q 2562 4091 2278 4091 
Q 2159 4091 2059 4134 
Q 1959 4178 1844 4281 
z
" transform="scale(0.015625)"/>
      <path id="DejaVuSans-20" transform="scale(0.015625)"/>
      <path id="DejaVuSans-64" d="M 2906 2969 
L 2906 4863 
L 3481 4863 
L 3481 0 
L 2906 0 
L 2906 525 
Q 2725 213 2448 61 
Q 2172 -91 1784 -91 
Q 1150 -91 751 415 
Q 353 922 353 1747 
Q 353 2572 751 3078 
Q 1150 3584 1784 3584 
Q 2172 3584 2448 3432 
Q 2725 3281 2906 2969 
z
M 947 1747 
Q 947 1113 1208 752 
Q 1469 391 1925 391 
Q 2381 391 2643 752 
Q 2906 1113 2906 1747 
Q 2906 2381 2643 2742 
Q 2381 3103 1925 3103 
Q 1469 3103 1208 2742 
Q 947 2381 947 1747 
z
" transform="scale(0.015625)"/>
      <path id="DejaVuSans-28" d="M 1984 4856 
Q 1566 4138 1362 3434 
Q 1159 2731 1159 2009 
Q 1159 1288 1364 580 
Q 1569 -128 1984 -844 
L 1484 -844 
Q 1016 -109 783 600 
Q 550 1309 550 2009 
Q 550 2706 781 3412 
Q 1013 4119 1484 4856 
L 1984 4856 
z
" transform="scale(0.015625)"/>
      <path id="DejaVuSans-59" d="M -13 4666 
L 666 4666 
L 1959 2747 
L 3244 4666 
L 3922 4666 
L 2272 2222 
L 2272 0 
L 1638 0 
L 1638 2222 
L -13 4666 
z
" transform="scale(0.015625)"/>
      <path id="DejaVuSans-4f" d="M 2522 4238 
Q 1834 4238 1429 3725 
Q 1025 3213 1025 2328 
Q 1025 1447 1429 934 
Q 1834 422 2522 422 
Q 3209 422 3611 934 
Q 4013 1447 4013 2328 
Q 4013 3213 3611 3725 
Q 3209 4238 2522 4238 
z
M 2522 4750 
Q 3503 4750 4090 4092 
Q 4678 3434 4678 2328 
Q 4678 1225 4090 567 
Q 3503 -91 2522 -91 
Q 1538 -91 948 565 
Q 359 1222 359 2328 
Q 359 3434 948 4092 
Q 1538 4750 2522 4750 
z
" transform="scale(0.015625)"/>
      <path id="DejaVuSans-4c" d="M 628 4666 
L 1259 4666 
L 1259 531 
L 3531 531 
L 3531 0 
L 628 0 
L 628 4666 
z
" transform="scale(0.015625)"/>
      <path id="DejaVuSans-29" d="M 513 4856 
L 1013 4856 
Q 1481 4119 1714 3412 
Q 1947 2706 1947 2009 
Q 1947 1309 1714 600 
Q 1481 -109 1013 -844 
L 513 -844 
Q 928 -128 1133 580 
Q 1338 1288 1338 2009 
Q 1338 2731 1133 3434 
Q 928 4138 513 4856 
z
" transform="scale(0.015625)"/>
      <path id="DejaVuSans-2d" d="M 313 2009 
L 1997 2009 
L 1997 1497 
L 313 1497 
L 313 2009 
z
" transform="scale(0.015625)"/>
      <path id="DejaVuSans-56" d="M 1831 0 
L 50 4666 
L 709 4666 
L 2188 738 
L 3669 4666 
L 4325 4666 
L 2547 0 
L 1831 0 
z
" transform="scale(0.015625)"/>
     </defs>
     <use xlink:href="#DejaVuSans-44"/>
     <use xlink:href="#DejaVuSans-69" x="77.001953"/>
     <use xlink:href="#DejaVuSans-73" x="104.785156"/>
     <use xlink:href="#DejaVuSans-74" x="156.884766"/>
     <use xlink:href="#DejaVuSans-72" x="196.09375"/>
     <use xlink:href="#DejaVuSans-69" x="237.207031"/>
     <use xlink:href="#DejaVuSans-62" x="264.990234"/>
     <use xlink:href="#DejaVuSans-75" x="328.466797"/>
     <use xlink:href="#DejaVuSans-69" x="391.845703"/>
     <use xlink:href="#DejaVuSans-e7" x="419.628906"/>
     <use xlink:href="#DejaVuSans-e3" x="474.609375"/>
     <use xlink:href="#DejaVuSans-6f" x="535.888672"/>
     <use xlink:href="#DejaVuSans-20" x="597.070312"/>
     <use xlink:href="#DejaVuSans-64" x="628.857422"/>
     <use xlink:href="#DejaVuSans-65" x="692.333984"/>
     <use xlink:href="#DejaVuSans-20" x="753.857422"/>
     <use xlink:href="#DejaVuSans-45" x="785.644531"/>
     <use xlink:href="#DejaVuSans-72" x="848.828125"/>
     <use xlink:href="#DejaVuSans-72" x="888.191406"/>
     <use xlink:href="#DejaVuSans-6f" x="927.054688"/>
     <use xlink:href="#DejaVuSans-73" x="988.236328"/>
     <use xlink:href="#DejaVuSans-20" x="1040.335938"/>
     <use xlink:href="#DejaVuSans-70" x="1072.123047"/>
     <use xlink:href="#DejaVuSans-6f" x="1135.599609"/>
     <use xlink:href="#DejaVuSans-72" x="1196.78125"/>
     <use xlink:href="#DejaVuSans-20" x="1237.894531"/>
     <use xlink:href="#DejaVuSans-50" x="1269.681641"/>
     <use xlink:href="#DejaVuSans-61" x="1325.484375"/>
     <use xlink:href="#DejaVuSans-72" x="1386.763672"/>
     <use xlink:href="#DejaVuSans-74" x="1427.876953"/>
     <use xlink:href="#DejaVuSans-65" x="1467.085938"/>
     <use xlink:href="#DejaVuSans-73" x="1528.609375"/>
     <use xlink:href="#DejaVuSans-20" x="1580.708984"/>
     <use xlink:href="#DejaVuSans-28" x="1612.496094"/>
     <use xlink:href="#DejaVuSans-59" x="1651.509766"/>
     <use xlink:href="#DejaVuSans-4f" x="1707.09375"/>
     <use xlink:href="#DejaVuSans-4c" x="1785.804688"/>
     <use xlink:href="#DejaVuSans-4f" x="1837.892578"/>
     <use xlink:href="#DejaVuSans-20" x="1916.603516"/>
     <use xlink:href="#DejaVuSans-50" x="1948.390625"/>
     <use xlink:href="#DejaVuSans-50" x="2008.693359"/>
     <use xlink:href="#DejaVuSans-45" x="2068.996094"/>
     <use xlink:href="#DejaVuSans-29" x="2132.179688"/>
     <use xlink:href="#DejaVuSans-20" x="2171.193359"/>
     <use xlink:href="#DejaVuSans-2d" x="2202.980469"/>
     <use xlink:href="#DejaVuSans-20" x="2239.064453"/>
     <use xlink:href="#DejaVuSans-56" x="2270.851562"/>
     <use xlink:href="#DejaVuSans-69" x="2337.009766"/>
     <use xlink:href="#DejaVuSans-72" x="2364.792969"/>
     <use xlink:href="#DejaVuSans-69" x="2405.90625"/>
     <use xlink:href="#DejaVuSans-64" x="2433.689453"/>
     <use xlink:href="#DejaVuSans-69" x="2497.166016"/>
     <use xlink:href="#DejaVuSans-73" x="2524.949219"/>
    </g>
   </g>
  </g>
 </g>
 <defs>
  <clipPath id="p10cae9b3a6">
   <rect x="50.6" y="27.6" width="802.6" height="303.828688"/>
  </clipPath>
 </defs>
</svg>
