<?xml version="1.0" encoding="utf-8" standalone="no"?>
<!DOCTYPE svg PUBLIC "-//W3C//DTD SVG 1.1//EN"
  "http://www.w3.org/Graphics/SVG/1.1/DTD/svg11.dtd">
<svg xmlns:xlink="http://www.w3.org/1999/xlink" width="864pt" height="432pt" viewBox="0 0 864 432" xmlns="http://www.w3.org/2000/svg" version="1.1">
 <metadata>
  <rdf:RDF xmlns:dc="http://purl.org/dc/elements/1.1/" xmlns:cc="http://creativecommons.org/ns#" xmlns:rdf="http://www.w3.org/1999/02/22-rdf-syntax-ns#">
   <cc:Work>
    <dc:type rdf:resource="http://purl.org/dc/dcmitype/StillImage"/>
    <dc:date>2024-12-03T22:03:10.805533</dc:date>
    <dc:format>image/svg+xml</dc:format>
    <dc:creator>
     <cc:Agent>
      <dc:title>Matplotlib v3.9.2, https://matplotlib.org/</dc:title>
     </cc:Agent>
    </dc:creator>
   </cc:Work>
  </rdf:RDF>
 </metadata>
 <defs>
  <style type="text/css">*{stroke-linejoin: round; stroke-linecap: butt}</style>
 </defs>
 <g id="figure_1">
  <g id="patch_1">
   <path d="M 0 432 
L 864 432 
L 864 0 
L 0 0 
z
" style="fill: #ffffff"/>
  </g>
  <g id="axes_1">
   <g id="patch_2">
    <path d="M 50.6 322.455503 
L 853.2 322.455503 
L 853.2 27.6 
L 50.6 27.6 
z
" style="fill: #ffffff"/>
   </g>
   <g id="matplotlib.axis_1">
    <g id="xtick_1">
     <g id="line2d_1">
      <defs>
       <path id="ma14a813d0b" d="M 0 0 
L 0 3.5 
" style="stroke: #000000; stroke-width: 0.8"/>
      </defs>
      <g>
       <use xlink:href="#ma14a813d0b" x="81.469231" y="322.455503" style="stroke: #000000; stroke-width: 0.8"/>
      </g>
     </g>
     <g id="text_1">
      <!-- kp0_nose -->
      <g transform="translate(46.341492 368.288923) rotate(-45) scale(0.1 -0.1)">
       <defs>
        <path id="DejaVuSans-6b" d="M 581 4863 
L 1159 4863 
L 1159 1991 
L 2875 3500 
L 3609 3500 
L 1753 1863 
L 3688 0 
L 2938 0 
L 1159 1709 
L 1159 0 
L 581 0 
L 581 4863 
z
" transform="scale(0.015625)"/>
        <path id="DejaVuSans-70" d="M 1159 525 
L 1159 -1331 
L 581 -1331 
L 581 3500 
L 1159 3500 
L 1159 2969 
Q 1341 3281 1617 3432 
Q 1894 3584 2278 3584 
Q 2916 3584 3314 3078 
Q 3713 2572 3713 1747 
Q 3713 922 3314 415 
Q 2916 -91 2278 -91 
Q 1894 -91 1617 61 
Q 1341 213 1159 525 
z
M 3116 1747 
Q 3116 2381 2855 2742 
Q 2594 3103 2138 3103 
Q 1681 3103 1420 2742 
Q 1159 2381 1159 1747 
Q 1159 1113 1420 752 
Q 1681 391 2138 391 
Q 2594 391 2855 752 
Q 3116 1113 3116 1747 
z
" transform="scale(0.015625)"/>
        <path id="DejaVuSans-30" d="M 2034 4250 
Q 1547 4250 1301 3770 
Q 1056 3291 1056 2328 
Q 1056 1369 1301 889 
Q 1547 409 2034 409 
Q 2525 409 2770 889 
Q 3016 1369 3016 2328 
Q 3016 3291 2770 3770 
Q 2525 4250 2034 4250 
z
M 2034 4750 
Q 2819 4750 3233 4129 
Q 3647 3509 3647 2328 
Q 3647 1150 3233 529 
Q 2819 -91 2034 -91 
Q 1250 -91 836 529 
Q 422 1150 422 2328 
Q 422 3509 836 4129 
Q 1250 4750 2034 4750 
z
" transform="scale(0.015625)"/>
        <path id="DejaVuSans-5f" d="M 3263 -1063 
L 3263 -1509 
L -63 -1509 
L -63 -1063 
L 3263 -1063 
z
" transform="scale(0.015625)"/>
        <path id="DejaVuSans-6e" d="M 3513 2113 
L 3513 0 
L 2938 0 
L 2938 2094 
Q 2938 2591 2744 2837 
Q 2550 3084 2163 3084 
Q 1697 3084 1428 2787 
Q 1159 2491 1159 1978 
L 1159 0 
L 581 0 
L 581 3500 
L 1159 3500 
L 1159 2956 
Q 1366 3272 1645 3428 
Q 1925 3584 2291 3584 
Q 2894 3584 3203 3211 
Q 3513 2838 3513 2113 
z
" transform="scale(0.015625)"/>
        <path id="DejaVuSans-6f" d="M 1959 3097 
Q 1497 3097 1228 2736 
Q 959 2375 959 1747 
Q 959 1119 1226 758 
Q 1494 397 1959 397 
Q 2419 397 2687 759 
Q 2956 1122 2956 1747 
Q 2956 2369 2687 2733 
Q 2419 3097 1959 3097 
z
M 1959 3584 
Q 2709 3584 3137 3096 
Q 3566 2609 3566 1747 
Q 3566 888 3137 398 
Q 2709 -91 1959 -91 
Q 1206 -91 779 398 
Q 353 888 353 1747 
Q 353 2609 779 3096 
Q 1206 3584 1959 3584 
z
" transform="scale(0.015625)"/>
        <path id="DejaVuSans-73" d="M 2834 3397 
L 2834 2853 
Q 2591 2978 2328 3040 
Q 2066 3103 1784 3103 
Q 1356 3103 1142 2972 
Q 928 2841 928 2578 
Q 928 2378 1081 2264 
Q 1234 2150 1697 2047 
L 1894 2003 
Q 2506 1872 2764 1633 
Q 3022 1394 3022 966 
Q 3022 478 2636 193 
Q 2250 -91 1575 -91 
Q 1294 -91 989 -36 
Q 684 19 347 128 
L 347 722 
Q 666 556 975 473 
Q 1284 391 1588 391 
Q 1994 391 2212 530 
Q 2431 669 2431 922 
Q 2431 1156 2273 1281 
Q 2116 1406 1581 1522 
L 1381 1569 
Q 847 1681 609 1914 
Q 372 2147 372 2553 
Q 372 3047 722 3315 
Q 1072 3584 1716 3584 
Q 2034 3584 2315 3537 
Q 2597 3491 2834 3397 
z
" transform="scale(0.015625)"/>
        <path id="DejaVuSans-65" d="M 3597 1894 
L 3597 1613 
L 953 1613 
Q 991 1019 1311 708 
Q 1631 397 2203 397 
Q 2534 397 2845 478 
Q 3156 559 3463 722 
L 3463 178 
Q 3153 47 2828 -22 
Q 2503 -91 2169 -91 
Q 1331 -91 842 396 
Q 353 884 353 1716 
Q 353 2575 817 3079 
Q 1281 3584 2069 3584 
Q 2775 3584 3186 3129 
Q 3597 2675 3597 1894 
z
M 3022 2063 
Q 3016 2534 2758 2815 
Q 2500 3097 2075 3097 
Q 1594 3097 1305 2825 
Q 1016 2553 972 2059 
L 3022 2063 
z
" transform="scale(0.015625)"/>
       </defs>
       <use xlink:href="#DejaVuSans-6b"/>
       <use xlink:href="#DejaVuSans-70" x="57.910156"/>
       <use xlink:href="#DejaVuSans-30" x="121.386719"/>
       <use xlink:href="#DejaVuSans-5f" x="185.009766"/>
       <use xlink:href="#DejaVuSans-6e" x="235.009766"/>
       <use xlink:href="#DejaVuSans-6f" x="298.388672"/>
       <use xlink:href="#DejaVuSans-73" x="359.570312"/>
       <use xlink:href="#DejaVuSans-65" x="411.669922"/>
      </g>
     </g>
    </g>
    <g id="xtick_2">
     <g id="line2d_2">
      <g>
       <use xlink:href="#ma14a813d0b" x="143.207692" y="322.455503" style="stroke: #000000; stroke-width: 0.8"/>
      </g>
     </g>
     <g id="text_2">
      <!-- kp6_right_shoulder -->
      <g transform="translate(74.089109 402.279767) rotate(-45) scale(0.1 -0.1)">
       <defs>
        <path id="DejaVuSans-36" d="M 2113 2584 
Q 1688 2584 1439 2293 
Q 1191 2003 1191 1497 
Q 1191 994 1439 701 
Q 1688 409 2113 409 
Q 2538 409 2786 701 
Q 3034 994 3034 1497 
Q 3034 2003 2786 2293 
Q 2538 2584 2113 2584 
z
M 3366 4563 
L 3366 3988 
Q 3128 4100 2886 4159 
Q 2644 4219 2406 4219 
Q 1781 4219 1451 3797 
Q 1122 3375 1075 2522 
Q 1259 2794 1537 2939 
Q 1816 3084 2150 3084 
Q 2853 3084 3261 2657 
Q 3669 2231 3669 1497 
Q 3669 778 3244 343 
Q 2819 -91 2113 -91 
Q 1303 -91 875 529 
Q 447 1150 447 2328 
Q 447 3434 972 4092 
Q 1497 4750 2381 4750 
Q 2619 4750 2861 4703 
Q 3103 4656 3366 4563 
z
" transform="scale(0.015625)"/>
        <path id="DejaVuSans-72" d="M 2631 2963 
Q 2534 3019 2420 3045 
Q 2306 3072 2169 3072 
Q 1681 3072 1420 2755 
Q 1159 2438 1159 1844 
L 1159 0 
L 581 0 
L 581 3500 
L 1159 3500 
L 1159 2956 
Q 1341 3275 1631 3429 
Q 1922 3584 2338 3584 
Q 2397 3584 2469 3576 
Q 2541 3569 2628 3553 
L 2631 2963 
z
" transform="scale(0.015625)"/>
        <path id="DejaVuSans-69" d="M 603 3500 
L 1178 3500 
L 1178 0 
L 603 0 
L 603 3500 
z
M 603 4863 
L 1178 4863 
L 1178 4134 
L 603 4134 
L 603 4863 
z
" transform="scale(0.015625)"/>
        <path id="DejaVuSans-67" d="M 2906 1791 
Q 2906 2416 2648 2759 
Q 2391 3103 1925 3103 
Q 1463 3103 1205 2759 
Q 947 2416 947 1791 
Q 947 1169 1205 825 
Q 1463 481 1925 481 
Q 2391 481 2648 825 
Q 2906 1169 2906 1791 
z
M 3481 434 
Q 3481 -459 3084 -895 
Q 2688 -1331 1869 -1331 
Q 1566 -1331 1297 -1286 
Q 1028 -1241 775 -1147 
L 775 -588 
Q 1028 -725 1275 -790 
Q 1522 -856 1778 -856 
Q 2344 -856 2625 -561 
Q 2906 -266 2906 331 
L 2906 616 
Q 2728 306 2450 153 
Q 2172 0 1784 0 
Q 1141 0 747 490 
Q 353 981 353 1791 
Q 353 2603 747 3093 
Q 1141 3584 1784 3584 
Q 2172 3584 2450 3431 
Q 2728 3278 2906 2969 
L 2906 3500 
L 3481 3500 
L 3481 434 
z
" transform="scale(0.015625)"/>
        <path id="DejaVuSans-68" d="M 3513 2113 
L 3513 0 
L 2938 0 
L 2938 2094 
Q 2938 2591 2744 2837 
Q 2550 3084 2163 3084 
Q 1697 3084 1428 2787 
Q 1159 2491 1159 1978 
L 1159 0 
L 581 0 
L 581 4863 
L 1159 4863 
L 1159 2956 
Q 1366 3272 1645 3428 
Q 1925 3584 2291 3584 
Q 2894 3584 3203 3211 
Q 3513 2838 3513 2113 
z
" transform="scale(0.015625)"/>
        <path id="DejaVuSans-74" d="M 1172 4494 
L 1172 3500 
L 2356 3500 
L 2356 3053 
L 1172 3053 
L 1172 1153 
Q 1172 725 1289 603 
Q 1406 481 1766 481 
L 2356 481 
L 2356 0 
L 1766 0 
Q 1100 0 847 248 
Q 594 497 594 1153 
L 594 3053 
L 172 3053 
L 172 3500 
L 594 3500 
L 594 4494 
L 1172 4494 
z
" transform="scale(0.015625)"/>
        <path id="DejaVuSans-75" d="M 544 1381 
L 544 3500 
L 1119 3500 
L 1119 1403 
Q 1119 906 1312 657 
Q 1506 409 1894 409 
Q 2359 409 2629 706 
Q 2900 1003 2900 1516 
L 2900 3500 
L 3475 3500 
L 3475 0 
L 2900 0 
L 2900 538 
Q 2691 219 2414 64 
Q 2138 -91 1772 -91 
Q 1169 -91 856 284 
Q 544 659 544 1381 
z
M 1991 3584 
L 1991 3584 
z
" transform="scale(0.015625)"/>
        <path id="DejaVuSans-6c" d="M 603 4863 
L 1178 4863 
L 1178 0 
L 603 0 
L 603 4863 
z
" transform="scale(0.015625)"/>
        <path id="DejaVuSans-64" d="M 2906 2969 
L 2906 4863 
L 3481 4863 
L 3481 0 
L 2906 0 
L 2906 525 
Q 2725 213 2448 61 
Q 2172 -91 1784 -91 
Q 1150 -91 751 415 
Q 353 922 353 1747 
Q 353 2572 751 3078 
Q 1150 3584 1784 3584 
Q 2172 3584 2448 3432 
Q 2725 3281 2906 2969 
z
M 947 1747 
Q 947 1113 1208 752 
Q 1469 391 1925 391 
Q 2381 391 2643 752 
Q 2906 1113 2906 1747 
Q 2906 2381 2643 2742 
Q 2381 3103 1925 3103 
Q 1469 3103 1208 2742 
Q 947 2381 947 1747 
z
" transform="scale(0.015625)"/>
       </defs>
       <use xlink:href="#DejaVuSans-6b"/>
       <use xlink:href="#DejaVuSans-70" x="57.910156"/>
       <use xlink:href="#DejaVuSans-36" x="121.386719"/>
       <use xlink:href="#DejaVuSans-5f" x="185.009766"/>
       <use xlink:href="#DejaVuSans-72" x="235.009766"/>
       <use xlink:href="#DejaVuSans-69" x="276.123047"/>
       <use xlink:href="#DejaVuSans-67" x="303.90625"/>
       <use xlink:href="#DejaVuSans-68" x="367.382812"/>
       <use xlink:href="#DejaVuSans-74" x="430.761719"/>
       <use xlink:href="#DejaVuSans-5f" x="469.970703"/>
       <use xlink:href="#DejaVuSans-73" x="519.970703"/>
       <use xlink:href="#DejaVuSans-68" x="572.070312"/>
       <use xlink:href="#DejaVuSans-6f" x="635.449219"/>
       <use xlink:href="#DejaVuSans-75" x="696.630859"/>
       <use xlink:href="#DejaVuSans-6c" x="760.009766"/>
       <use xlink:href="#DejaVuSans-64" x="787.792969"/>
       <use xlink:href="#DejaVuSans-65" x="851.269531"/>
       <use xlink:href="#DejaVuSans-72" x="912.792969"/>
      </g>
     </g>
    </g>
    <g id="xtick_3">
     <g id="line2d_3">
      <g>
       <use xlink:href="#ma14a813d0b" x="204.946154" y="322.455503" style="stroke: #000000; stroke-width: 0.8"/>
      </g>
     </g>
     <g id="text_3">
      <!-- kp5_left_shoulder -->
      <g transform="translate(140.988345 397.118993) rotate(-45) scale(0.1 -0.1)">
       <defs>
        <path id="DejaVuSans-35" d="M 691 4666 
L 3169 4666 
L 3169 4134 
L 1269 4134 
L 1269 2991 
Q 1406 3038 1543 3061 
Q 1681 3084 1819 3084 
Q 2600 3084 3056 2656 
Q 3513 2228 3513 1497 
Q 3513 744 3044 326 
Q 2575 -91 1722 -91 
Q 1428 -91 1123 -41 
Q 819 9 494 109 
L 494 744 
Q 775 591 1075 516 
Q 1375 441 1709 441 
Q 2250 441 2565 725 
Q 2881 1009 2881 1497 
Q 2881 1984 2565 2268 
Q 2250 2553 1709 2553 
Q 1456 2553 1204 2497 
Q 953 2441 691 2322 
L 691 4666 
z
" transform="scale(0.015625)"/>
        <path id="DejaVuSans-66" d="M 2375 4863 
L 2375 4384 
L 1825 4384 
Q 1516 4384 1395 4259 
Q 1275 4134 1275 3809 
L 1275 3500 
L 2222 3500 
L 2222 3053 
L 1275 3053 
L 1275 0 
L 697 0 
L 697 3053 
L 147 3053 
L 147 3500 
L 697 3500 
L 697 3744 
Q 697 4328 969 4595 
Q 1241 4863 1831 4863 
L 2375 4863 
z
" transform="scale(0.015625)"/>
       </defs>
       <use xlink:href="#DejaVuSans-6b"/>
       <use xlink:href="#DejaVuSans-70" x="57.910156"/>
       <use xlink:href="#DejaVuSans-35" x="121.386719"/>
       <use xlink:href="#DejaVuSans-5f" x="185.009766"/>
       <use xlink:href="#DejaVuSans-6c" x="235.009766"/>
       <use xlink:href="#DejaVuSans-65" x="262.792969"/>
       <use xlink:href="#DejaVuSans-66" x="324.316406"/>
       <use xlink:href="#DejaVuSans-74" x="357.771484"/>
       <use xlink:href="#DejaVuSans-5f" x="396.980469"/>
       <use xlink:href="#DejaVuSans-73" x="446.980469"/>
       <use xlink:href="#DejaVuSans-68" x="499.080078"/>
       <use xlink:href="#DejaVuSans-6f" x="562.458984"/>
       <use xlink:href="#DejaVuSans-75" x="623.640625"/>
       <use xlink:href="#DejaVuSans-6c" x="687.019531"/>
       <use xlink:href="#DejaVuSans-64" x="714.802734"/>
       <use xlink:href="#DejaVuSans-65" x="778.279297"/>
       <use xlink:href="#DejaVuSans-72" x="839.802734"/>
      </g>
     </g>
    </g>
    <g id="xtick_4">
     <g id="line2d_4">
      <g>
       <use xlink:href="#ma14a813d0b" x="266.684615" y="322.455503" style="stroke: #000000; stroke-width: 0.8"/>
      </g>
     </g>
     <g id="text_4">
      <!-- kp11_left_hip -->
      <g transform="translate(217.977112 381.868688) rotate(-45) scale(0.1 -0.1)">
       <defs>
        <path id="DejaVuSans-31" d="M 794 531 
L 1825 531 
L 1825 4091 
L 703 3866 
L 703 4441 
L 1819 4666 
L 2450 4666 
L 2450 531 
L 3481 531 
L 3481 0 
L 794 0 
L 794 531 
z
" transform="scale(0.015625)"/>
       </defs>
       <use xlink:href="#DejaVuSans-6b"/>
       <use xlink:href="#DejaVuSans-70" x="57.910156"/>
       <use xlink:href="#DejaVuSans-31" x="121.386719"/>
       <use xlink:href="#DejaVuSans-31" x="185.009766"/>
       <use xlink:href="#DejaVuSans-5f" x="248.632812"/>
       <use xlink:href="#DejaVuSans-6c" x="298.632812"/>
       <use xlink:href="#DejaVuSans-65" x="326.416016"/>
       <use xlink:href="#DejaVuSans-66" x="387.939453"/>
       <use xlink:href="#DejaVuSans-74" x="421.394531"/>
       <use xlink:href="#DejaVuSans-5f" x="460.603516"/>
       <use xlink:href="#DejaVuSans-68" x="510.603516"/>
       <use xlink:href="#DejaVuSans-69" x="573.982422"/>
       <use xlink:href="#DejaVuSans-70" x="601.765625"/>
      </g>
     </g>
    </g>
    <g id="xtick_5">
     <g id="line2d_5">
      <g>
       <use xlink:href="#ma14a813d0b" x="328.423077" y="322.455503" style="stroke: #000000; stroke-width: 0.8"/>
      </g>
     </g>
     <g id="text_5">
      <!-- kp12_right_hip -->
      <g transform="translate(274.554798 387.029463) rotate(-45) scale(0.1 -0.1)">
       <defs>
        <path id="DejaVuSans-32" d="M 1228 531 
L 3431 531 
L 3431 0 
L 469 0 
L 469 531 
Q 828 903 1448 1529 
Q 2069 2156 2228 2338 
Q 2531 2678 2651 2914 
Q 2772 3150 2772 3378 
Q 2772 3750 2511 3984 
Q 2250 4219 1831 4219 
Q 1534 4219 1204 4116 
Q 875 4013 500 3803 
L 500 4441 
Q 881 4594 1212 4672 
Q 1544 4750 1819 4750 
Q 2544 4750 2975 4387 
Q 3406 4025 3406 3419 
Q 3406 3131 3298 2873 
Q 3191 2616 2906 2266 
Q 2828 2175 2409 1742 
Q 1991 1309 1228 531 
z
" transform="scale(0.015625)"/>
       </defs>
       <use xlink:href="#DejaVuSans-6b"/>
       <use xlink:href="#DejaVuSans-70" x="57.910156"/>
       <use xlink:href="#DejaVuSans-31" x="121.386719"/>
       <use xlink:href="#DejaVuSans-32" x="185.009766"/>
       <use xlink:href="#DejaVuSans-5f" x="248.632812"/>
       <use xlink:href="#DejaVuSans-72" x="298.632812"/>
       <use xlink:href="#DejaVuSans-69" x="339.746094"/>
       <use xlink:href="#DejaVuSans-67" x="367.529297"/>
       <use xlink:href="#DejaVuSans-68" x="431.005859"/>
       <use xlink:href="#DejaVuSans-74" x="494.384766"/>
       <use xlink:href="#DejaVuSans-5f" x="533.59375"/>
       <use xlink:href="#DejaVuSans-68" x="583.59375"/>
       <use xlink:href="#DejaVuSans-69" x="646.972656"/>
       <use xlink:href="#DejaVuSans-70" x="674.755859"/>
      </g>
     </g>
    </g>
    <g id="xtick_6">
     <g id="line2d_6">
      <g>
       <use xlink:href="#ma14a813d0b" x="390.161538" y="322.455503" style="stroke: #000000; stroke-width: 0.8"/>
      </g>
     </g>
     <g id="text_6">
      <!-- kp14_right_knee -->
      <g transform="translate(329.950291 393.372432) rotate(-45) scale(0.1 -0.1)">
       <defs>
        <path id="DejaVuSans-34" d="M 2419 4116 
L 825 1625 
L 2419 1625 
L 2419 4116 
z
M 2253 4666 
L 3047 4666 
L 3047 1625 
L 3713 1625 
L 3713 1100 
L 3047 1100 
L 3047 0 
L 2419 0 
L 2419 1100 
L 313 1100 
L 313 1709 
L 2253 4666 
z
" transform="scale(0.015625)"/>
       </defs>
       <use xlink:href="#DejaVuSans-6b"/>
       <use xlink:href="#DejaVuSans-70" x="57.910156"/>
       <use xlink:href="#DejaVuSans-31" x="121.386719"/>
       <use xlink:href="#DejaVuSans-34" x="185.009766"/>
       <use xlink:href="#DejaVuSans-5f" x="248.632812"/>
       <use xlink:href="#DejaVuSans-72" x="298.632812"/>
       <use xlink:href="#DejaVuSans-69" x="339.746094"/>
       <use xlink:href="#DejaVuSans-67" x="367.529297"/>
       <use xlink:href="#DejaVuSans-68" x="431.005859"/>
       <use xlink:href="#DejaVuSans-74" x="494.384766"/>
       <use xlink:href="#DejaVuSans-5f" x="533.59375"/>
       <use xlink:href="#DejaVuSans-6b" x="583.59375"/>
       <use xlink:href="#DejaVuSans-6e" x="641.503906"/>
       <use xlink:href="#DejaVuSans-65" x="704.882812"/>
       <use xlink:href="#DejaVuSans-65" x="766.40625"/>
      </g>
     </g>
    </g>
    <g id="xtick_7">
     <g id="line2d_7">
      <g>
       <use xlink:href="#ma14a813d0b" x="451.9" y="322.455503" style="stroke: #000000; stroke-width: 0.8"/>
      </g>
     </g>
     <g id="text_7">
      <!-- kp13_left_knee -->
      <g transform="translate(396.849527 388.211657) rotate(-45) scale(0.1 -0.1)">
       <defs>
        <path id="DejaVuSans-33" d="M 2597 2516 
Q 3050 2419 3304 2112 
Q 3559 1806 3559 1356 
Q 3559 666 3084 287 
Q 2609 -91 1734 -91 
Q 1441 -91 1130 -33 
Q 819 25 488 141 
L 488 750 
Q 750 597 1062 519 
Q 1375 441 1716 441 
Q 2309 441 2620 675 
Q 2931 909 2931 1356 
Q 2931 1769 2642 2001 
Q 2353 2234 1838 2234 
L 1294 2234 
L 1294 2753 
L 1863 2753 
Q 2328 2753 2575 2939 
Q 2822 3125 2822 3475 
Q 2822 3834 2567 4026 
Q 2313 4219 1838 4219 
Q 1578 4219 1281 4162 
Q 984 4106 628 3988 
L 628 4550 
Q 988 4650 1302 4700 
Q 1616 4750 1894 4750 
Q 2613 4750 3031 4423 
Q 3450 4097 3450 3541 
Q 3450 3153 3228 2886 
Q 3006 2619 2597 2516 
z
" transform="scale(0.015625)"/>
       </defs>
       <use xlink:href="#DejaVuSans-6b"/>
       <use xlink:href="#DejaVuSans-70" x="57.910156"/>
       <use xlink:href="#DejaVuSans-31" x="121.386719"/>
       <use xlink:href="#DejaVuSans-33" x="185.009766"/>
       <use xlink:href="#DejaVuSans-5f" x="248.632812"/>
       <use xlink:href="#DejaVuSans-6c" x="298.632812"/>
       <use xlink:href="#DejaVuSans-65" x="326.416016"/>
       <use xlink:href="#DejaVuSans-66" x="387.939453"/>
       <use xlink:href="#DejaVuSans-74" x="421.394531"/>
       <use xlink:href="#DejaVuSans-5f" x="460.603516"/>
       <use xlink:href="#DejaVuSans-6b" x="510.603516"/>
       <use xlink:href="#DejaVuSans-6e" x="568.513672"/>
       <use xlink:href="#DejaVuSans-65" x="631.892578"/>
       <use xlink:href="#DejaVuSans-65" x="693.416016"/>
      </g>
     </g>
    </g>
    <g id="xtick_8">
     <g id="line2d_8">
      <g>
       <use xlink:href="#ma14a813d0b" x="513.638462" y="322.455503" style="stroke: #000000; stroke-width: 0.8"/>
      </g>
     </g>
     <g id="text_8">
      <!-- kp16_right_ankle -->
      <g transform="translate(451.480461 395.319185) rotate(-45) scale(0.1 -0.1)">
       <defs>
        <path id="DejaVuSans-61" d="M 2194 1759 
Q 1497 1759 1228 1600 
Q 959 1441 959 1056 
Q 959 750 1161 570 
Q 1363 391 1709 391 
Q 2188 391 2477 730 
Q 2766 1069 2766 1631 
L 2766 1759 
L 2194 1759 
z
M 3341 1997 
L 3341 0 
L 2766 0 
L 2766 531 
Q 2569 213 2275 61 
Q 1981 -91 1556 -91 
Q 1019 -91 701 211 
Q 384 513 384 1019 
Q 384 1609 779 1909 
Q 1175 2209 1959 2209 
L 2766 2209 
L 2766 2266 
Q 2766 2663 2505 2880 
Q 2244 3097 1772 3097 
Q 1472 3097 1187 3025 
Q 903 2953 641 2809 
L 641 3341 
Q 956 3463 1253 3523 
Q 1550 3584 1831 3584 
Q 2591 3584 2966 3190 
Q 3341 2797 3341 1997 
z
" transform="scale(0.015625)"/>
       </defs>
       <use xlink:href="#DejaVuSans-6b"/>
       <use xlink:href="#DejaVuSans-70" x="57.910156"/>
       <use xlink:href="#DejaVuSans-31" x="121.386719"/>
       <use xlink:href="#DejaVuSans-36" x="185.009766"/>
       <use xlink:href="#DejaVuSans-5f" x="248.632812"/>
       <use xlink:href="#DejaVuSans-72" x="298.632812"/>
       <use xlink:href="#DejaVuSans-69" x="339.746094"/>
       <use xlink:href="#DejaVuSans-67" x="367.529297"/>
       <use xlink:href="#DejaVuSans-68" x="431.005859"/>
       <use xlink:href="#DejaVuSans-74" x="494.384766"/>
       <use xlink:href="#DejaVuSans-5f" x="533.59375"/>
       <use xlink:href="#DejaVuSans-61" x="583.59375"/>
       <use xlink:href="#DejaVuSans-6e" x="644.873047"/>
       <use xlink:href="#DejaVuSans-6b" x="708.251953"/>
       <use xlink:href="#DejaVuSans-6c" x="766.162109"/>
       <use xlink:href="#DejaVuSans-65" x="793.945312"/>
      </g>
     </g>
    </g>
    <g id="xtick_9">
     <g id="line2d_9">
      <g>
       <use xlink:href="#ma14a813d0b" x="575.376923" y="322.455503" style="stroke: #000000; stroke-width: 0.8"/>
      </g>
     </g>
     <g id="text_9">
      <!-- kp15_left_ankle -->
      <g transform="translate(518.379697 390.15841) rotate(-45) scale(0.1 -0.1)">
       <use xlink:href="#DejaVuSans-6b"/>
       <use xlink:href="#DejaVuSans-70" x="57.910156"/>
       <use xlink:href="#DejaVuSans-31" x="121.386719"/>
       <use xlink:href="#DejaVuSans-35" x="185.009766"/>
       <use xlink:href="#DejaVuSans-5f" x="248.632812"/>
       <use xlink:href="#DejaVuSans-6c" x="298.632812"/>
       <use xlink:href="#DejaVuSans-65" x="326.416016"/>
       <use xlink:href="#DejaVuSans-66" x="387.939453"/>
       <use xlink:href="#DejaVuSans-74" x="421.394531"/>
       <use xlink:href="#DejaVuSans-5f" x="460.603516"/>
       <use xlink:href="#DejaVuSans-61" x="510.603516"/>
       <use xlink:href="#DejaVuSans-6e" x="571.882812"/>
       <use xlink:href="#DejaVuSans-6b" x="635.261719"/>
       <use xlink:href="#DejaVuSans-6c" x="693.171875"/>
       <use xlink:href="#DejaVuSans-65" x="720.955078"/>
      </g>
     </g>
    </g>
    <g id="xtick_10">
     <g id="line2d_10">
      <g>
       <use xlink:href="#ma14a813d0b" x="637.115385" y="322.455503" style="stroke: #000000; stroke-width: 0.8"/>
      </g>
     </g>
     <g id="text_10">
      <!-- kp7_left_elbow -->
      <g transform="translate(582.927803 387.348766) rotate(-45) scale(0.1 -0.1)">
       <defs>
        <path id="DejaVuSans-37" d="M 525 4666 
L 3525 4666 
L 3525 4397 
L 1831 0 
L 1172 0 
L 2766 4134 
L 525 4134 
L 525 4666 
z
" transform="scale(0.015625)"/>
        <path id="DejaVuSans-62" d="M 3116 1747 
Q 3116 2381 2855 2742 
Q 2594 3103 2138 3103 
Q 1681 3103 1420 2742 
Q 1159 2381 1159 1747 
Q 1159 1113 1420 752 
Q 1681 391 2138 391 
Q 2594 391 2855 752 
Q 3116 1113 3116 1747 
z
M 1159 2969 
Q 1341 3281 1617 3432 
Q 1894 3584 2278 3584 
Q 2916 3584 3314 3078 
Q 3713 2572 3713 1747 
Q 3713 922 3314 415 
Q 2916 -91 2278 -91 
Q 1894 -91 1617 61 
Q 1341 213 1159 525 
L 1159 0 
L 581 0 
L 581 4863 
L 1159 4863 
L 1159 2969 
z
" transform="scale(0.015625)"/>
        <path id="DejaVuSans-77" d="M 269 3500 
L 844 3500 
L 1563 769 
L 2278 3500 
L 2956 3500 
L 3675 769 
L 4391 3500 
L 4966 3500 
L 4050 0 
L 3372 0 
L 2619 2869 
L 1863 0 
L 1184 0 
L 269 3500 
z
" transform="scale(0.015625)"/>
       </defs>
       <use xlink:href="#DejaVuSans-6b"/>
       <use xlink:href="#DejaVuSans-70" x="57.910156"/>
       <use xlink:href="#DejaVuSans-37" x="121.386719"/>
       <use xlink:href="#DejaVuSans-5f" x="185.009766"/>
       <use xlink:href="#DejaVuSans-6c" x="235.009766"/>
       <use xlink:href="#DejaVuSans-65" x="262.792969"/>
       <use xlink:href="#DejaVuSans-66" x="324.316406"/>
       <use xlink:href="#DejaVuSans-74" x="357.771484"/>
       <use xlink:href="#DejaVuSans-5f" x="396.980469"/>
       <use xlink:href="#DejaVuSans-65" x="446.980469"/>
       <use xlink:href="#DejaVuSans-6c" x="508.503906"/>
       <use xlink:href="#DejaVuSans-62" x="536.287109"/>
       <use xlink:href="#DejaVuSans-6f" x="599.763672"/>
       <use xlink:href="#DejaVuSans-77" x="660.945312"/>
      </g>
     </g>
    </g>
    <g id="xtick_11">
     <g id="line2d_11">
      <g>
       <use xlink:href="#ma14a813d0b" x="698.853846" y="322.455503" style="stroke: #000000; stroke-width: 0.8"/>
      </g>
     </g>
     <g id="text_11">
      <!-- kp9_left_wrist -->
      <g transform="translate(648.470278 383.544752) rotate(-45) scale(0.1 -0.1)">
       <defs>
        <path id="DejaVuSans-39" d="M 703 97 
L 703 672 
Q 941 559 1184 500 
Q 1428 441 1663 441 
Q 2288 441 2617 861 
Q 2947 1281 2994 2138 
Q 2813 1869 2534 1725 
Q 2256 1581 1919 1581 
Q 1219 1581 811 2004 
Q 403 2428 403 3163 
Q 403 3881 828 4315 
Q 1253 4750 1959 4750 
Q 2769 4750 3195 4129 
Q 3622 3509 3622 2328 
Q 3622 1225 3098 567 
Q 2575 -91 1691 -91 
Q 1453 -91 1209 -44 
Q 966 3 703 97 
z
M 1959 2075 
Q 2384 2075 2632 2365 
Q 2881 2656 2881 3163 
Q 2881 3666 2632 3958 
Q 2384 4250 1959 4250 
Q 1534 4250 1286 3958 
Q 1038 3666 1038 3163 
Q 1038 2656 1286 2365 
Q 1534 2075 1959 2075 
z
" transform="scale(0.015625)"/>
       </defs>
       <use xlink:href="#DejaVuSans-6b"/>
       <use xlink:href="#DejaVuSans-70" x="57.910156"/>
       <use xlink:href="#DejaVuSans-39" x="121.386719"/>
       <use xlink:href="#DejaVuSans-5f" x="185.009766"/>
       <use xlink:href="#DejaVuSans-6c" x="235.009766"/>
       <use xlink:href="#DejaVuSans-65" x="262.792969"/>
       <use xlink:href="#DejaVuSans-66" x="324.316406"/>
       <use xlink:href="#DejaVuSans-74" x="357.771484"/>
       <use xlink:href="#DejaVuSans-5f" x="396.980469"/>
       <use xlink:href="#DejaVuSans-77" x="446.980469"/>
       <use xlink:href="#DejaVuSans-72" x="528.767578"/>
       <use xlink:href="#DejaVuSans-69" x="569.880859"/>
       <use xlink:href="#DejaVuSans-73" x="597.664062"/>
       <use xlink:href="#DejaVuSans-74" x="649.763672"/>
      </g>
     </g>
    </g>
    <g id="xtick_12">
     <g id="line2d_12">
      <g>
       <use xlink:href="#ma14a813d0b" x="760.592308" y="322.455503" style="stroke: #000000; stroke-width: 0.8"/>
      </g>
     </g>
     <g id="text_12">
      <!-- kp8_right_elbow -->
      <g transform="translate(701.243952 392.50954) rotate(-45) scale(0.1 -0.1)">
       <defs>
        <path id="DejaVuSans-38" d="M 2034 2216 
Q 1584 2216 1326 1975 
Q 1069 1734 1069 1313 
Q 1069 891 1326 650 
Q 1584 409 2034 409 
Q 2484 409 2743 651 
Q 3003 894 3003 1313 
Q 3003 1734 2745 1975 
Q 2488 2216 2034 2216 
z
M 1403 2484 
Q 997 2584 770 2862 
Q 544 3141 544 3541 
Q 544 4100 942 4425 
Q 1341 4750 2034 4750 
Q 2731 4750 3128 4425 
Q 3525 4100 3525 3541 
Q 3525 3141 3298 2862 
Q 3072 2584 2669 2484 
Q 3125 2378 3379 2068 
Q 3634 1759 3634 1313 
Q 3634 634 3220 271 
Q 2806 -91 2034 -91 
Q 1263 -91 848 271 
Q 434 634 434 1313 
Q 434 1759 690 2068 
Q 947 2378 1403 2484 
z
M 1172 3481 
Q 1172 3119 1398 2916 
Q 1625 2713 2034 2713 
Q 2441 2713 2670 2916 
Q 2900 3119 2900 3481 
Q 2900 3844 2670 4047 
Q 2441 4250 2034 4250 
Q 1625 4250 1398 4047 
Q 1172 3844 1172 3481 
z
" transform="scale(0.015625)"/>
       </defs>
       <use xlink:href="#DejaVuSans-6b"/>
       <use xlink:href="#DejaVuSans-70" x="57.910156"/>
       <use xlink:href="#DejaVuSans-38" x="121.386719"/>
       <use xlink:href="#DejaVuSans-5f" x="185.009766"/>
       <use xlink:href="#DejaVuSans-72" x="235.009766"/>
       <use xlink:href="#DejaVuSans-69" x="276.123047"/>
       <use xlink:href="#DejaVuSans-67" x="303.90625"/>
       <use xlink:href="#DejaVuSans-68" x="367.382812"/>
       <use xlink:href="#DejaVuSans-74" x="430.761719"/>
       <use xlink:href="#DejaVuSans-5f" x="469.970703"/>
       <use xlink:href="#DejaVuSans-65" x="519.970703"/>
       <use xlink:href="#DejaVuSans-6c" x="581.494141"/>
       <use xlink:href="#DejaVuSans-62" x="609.277344"/>
       <use xlink:href="#DejaVuSans-6f" x="672.753906"/>
       <use xlink:href="#DejaVuSans-77" x="733.935547"/>
      </g>
     </g>
    </g>
    <g id="xtick_13">
     <g id="line2d_13">
      <g>
       <use xlink:href="#ma14a813d0b" x="822.330769" y="322.455503" style="stroke: #000000; stroke-width: 0.8"/>
      </g>
     </g>
     <g id="text_13">
      <!-- kp10_right_wrist -->
      <g transform="translate(762.28746 393.204494) rotate(-45) scale(0.1 -0.1)">
       <use xlink:href="#DejaVuSans-6b"/>
       <use xlink:href="#DejaVuSans-70" x="57.910156"/>
       <use xlink:href="#DejaVuSans-31" x="121.386719"/>
       <use xlink:href="#DejaVuSans-30" x="185.009766"/>
       <use xlink:href="#DejaVuSans-5f" x="248.632812"/>
       <use xlink:href="#DejaVuSans-72" x="298.632812"/>
       <use xlink:href="#DejaVuSans-69" x="339.746094"/>
       <use xlink:href="#DejaVuSans-67" x="367.529297"/>
       <use xlink:href="#DejaVuSans-68" x="431.005859"/>
       <use xlink:href="#DejaVuSans-74" x="494.384766"/>
       <use xlink:href="#DejaVuSans-5f" x="533.59375"/>
       <use xlink:href="#DejaVuSans-77" x="583.59375"/>
       <use xlink:href="#DejaVuSans-72" x="665.380859"/>
       <use xlink:href="#DejaVuSans-69" x="706.494141"/>
       <use xlink:href="#DejaVuSans-73" x="734.277344"/>
       <use xlink:href="#DejaVuSans-74" x="786.376953"/>
      </g>
     </g>
    </g>
    <g id="text_14">
     <!-- Keypoints -->
     <g transform="translate(422.594688 417.065118) scale(0.12 -0.12)">
      <defs>
       <path id="DejaVuSans-4b" d="M 628 4666 
L 1259 4666 
L 1259 2694 
L 3353 4666 
L 4166 4666 
L 1850 2491 
L 4331 0 
L 3500 0 
L 1259 2247 
L 1259 0 
L 628 0 
L 628 4666 
z
" transform="scale(0.015625)"/>
       <path id="DejaVuSans-79" d="M 2059 -325 
Q 1816 -950 1584 -1140 
Q 1353 -1331 966 -1331 
L 506 -1331 
L 506 -850 
L 844 -850 
Q 1081 -850 1212 -737 
Q 1344 -625 1503 -206 
L 1606 56 
L 191 3500 
L 800 3500 
L 1894 763 
L 2988 3500 
L 3597 3500 
L 2059 -325 
z
" transform="scale(0.015625)"/>
      </defs>
      <use xlink:href="#DejaVuSans-4b"/>
      <use xlink:href="#DejaVuSans-65" x="60.576172"/>
      <use xlink:href="#DejaVuSans-79" x="122.099609"/>
      <use xlink:href="#DejaVuSans-70" x="181.279297"/>
      <use xlink:href="#DejaVuSans-6f" x="244.755859"/>
      <use xlink:href="#DejaVuSans-69" x="305.9375"/>
      <use xlink:href="#DejaVuSans-6e" x="333.720703"/>
      <use xlink:href="#DejaVuSans-74" x="397.099609"/>
      <use xlink:href="#DejaVuSans-73" x="436.308594"/>
     </g>
    </g>
   </g>
   <g id="matplotlib.axis_2">
    <g id="ytick_1">
     <g id="line2d_14">
      <path d="M 50.6 309.102579 
L 853.2 309.102579 
" clip-path="url(#p9b821498cd)" style="fill: none; stroke-dasharray: 2.96,1.28; stroke-dashoffset: 0; stroke: #b0b0b0; stroke-opacity: 0.7; stroke-width: 0.8"/>
     </g>
     <g id="line2d_15">
      <defs>
       <path id="mf712891f1b" d="M 0 0 
L -3.5 0 
" style="stroke: #000000; stroke-width: 0.8"/>
      </defs>
      <g>
       <use xlink:href="#mf712891f1b" x="50.6" y="309.102579" style="stroke: #000000; stroke-width: 0.8"/>
      </g>
     </g>
     <g id="text_15">
      <!-- 0.0 -->
      <g transform="translate(27.696875 312.901797) scale(0.1 -0.1)">
       <defs>
        <path id="DejaVuSans-2e" d="M 684 794 
L 1344 794 
L 1344 0 
L 684 0 
L 684 794 
z
" transform="scale(0.015625)"/>
       </defs>
       <use xlink:href="#DejaVuSans-30"/>
       <use xlink:href="#DejaVuSans-2e" x="63.623047"/>
       <use xlink:href="#DejaVuSans-30" x="95.410156"/>
      </g>
     </g>
    </g>
    <g id="ytick_2">
     <g id="line2d_16">
      <path d="M 50.6 255.48246 
L 853.2 255.48246 
" clip-path="url(#p9b821498cd)" style="fill: none; stroke-dasharray: 2.96,1.28; stroke-dashoffset: 0; stroke: #b0b0b0; stroke-opacity: 0.7; stroke-width: 0.8"/>
     </g>
     <g id="line2d_17">
      <g>
       <use xlink:href="#mf712891f1b" x="50.6" y="255.48246" style="stroke: #000000; stroke-width: 0.8"/>
      </g>
     </g>
     <g id="text_16">
      <!-- 0.2 -->
      <g transform="translate(27.696875 259.281679) scale(0.1 -0.1)">
       <use xlink:href="#DejaVuSans-30"/>
       <use xlink:href="#DejaVuSans-2e" x="63.623047"/>
       <use xlink:href="#DejaVuSans-32" x="95.410156"/>
      </g>
     </g>
    </g>
    <g id="ytick_3">
     <g id="line2d_18">
      <path d="M 50.6 201.862342 
L 853.2 201.862342 
" clip-path="url(#p9b821498cd)" style="fill: none; stroke-dasharray: 2.96,1.28; stroke-dashoffset: 0; stroke: #b0b0b0; stroke-opacity: 0.7; stroke-width: 0.8"/>
     </g>
     <g id="line2d_19">
      <g>
       <use xlink:href="#mf712891f1b" x="50.6" y="201.862342" style="stroke: #000000; stroke-width: 0.8"/>
      </g>
     </g>
     <g id="text_17">
      <!-- 0.4 -->
      <g transform="translate(27.696875 205.661561) scale(0.1 -0.1)">
       <use xlink:href="#DejaVuSans-30"/>
       <use xlink:href="#DejaVuSans-2e" x="63.623047"/>
       <use xlink:href="#DejaVuSans-34" x="95.410156"/>
      </g>
     </g>
    </g>
    <g id="ytick_4">
     <g id="line2d_20">
      <path d="M 50.6 148.242223 
L 853.2 148.242223 
" clip-path="url(#p9b821498cd)" style="fill: none; stroke-dasharray: 2.96,1.28; stroke-dashoffset: 0; stroke: #b0b0b0; stroke-opacity: 0.7; stroke-width: 0.8"/>
     </g>
     <g id="line2d_21">
      <g>
       <use xlink:href="#mf712891f1b" x="50.6" y="148.242223" style="stroke: #000000; stroke-width: 0.8"/>
      </g>
     </g>
     <g id="text_18">
      <!-- 0.6 -->
      <g transform="translate(27.696875 152.041442) scale(0.1 -0.1)">
       <use xlink:href="#DejaVuSans-30"/>
       <use xlink:href="#DejaVuSans-2e" x="63.623047"/>
       <use xlink:href="#DejaVuSans-36" x="95.410156"/>
      </g>
     </g>
    </g>
    <g id="ytick_5">
     <g id="line2d_22">
      <path d="M 50.6 94.622105 
L 853.2 94.622105 
" clip-path="url(#p9b821498cd)" style="fill: none; stroke-dasharray: 2.96,1.28; stroke-dashoffset: 0; stroke: #b0b0b0; stroke-opacity: 0.7; stroke-width: 0.8"/>
     </g>
     <g id="line2d_23">
      <g>
       <use xlink:href="#mf712891f1b" x="50.6" y="94.622105" style="stroke: #000000; stroke-width: 0.8"/>
      </g>
     </g>
     <g id="text_19">
      <!-- 0.8 -->
      <g transform="translate(27.696875 98.421324) scale(0.1 -0.1)">
       <use xlink:href="#DejaVuSans-30"/>
       <use xlink:href="#DejaVuSans-2e" x="63.623047"/>
       <use xlink:href="#DejaVuSans-38" x="95.410156"/>
      </g>
     </g>
    </g>
    <g id="ytick_6">
     <g id="line2d_24">
      <path d="M 50.6 41.001987 
L 853.2 41.001987 
" clip-path="url(#p9b821498cd)" style="fill: none; stroke-dasharray: 2.96,1.28; stroke-dashoffset: 0; stroke: #b0b0b0; stroke-opacity: 0.7; stroke-width: 0.8"/>
     </g>
     <g id="line2d_25">
      <g>
       <use xlink:href="#mf712891f1b" x="50.6" y="41.001987" style="stroke: #000000; stroke-width: 0.8"/>
      </g>
     </g>
     <g id="text_20">
      <!-- 1.0 -->
      <g transform="translate(27.696875 44.801205) scale(0.1 -0.1)">
       <use xlink:href="#DejaVuSans-31"/>
       <use xlink:href="#DejaVuSans-2e" x="63.623047"/>
       <use xlink:href="#DejaVuSans-30" x="95.410156"/>
      </g>
     </g>
    </g>
    <g id="text_21">
     <!-- Erro -->
     <g transform="translate(21.20125 187.183376) rotate(-90) scale(0.12 -0.12)">
      <defs>
       <path id="DejaVuSans-45" d="M 628 4666 
L 3578 4666 
L 3578 4134 
L 1259 4134 
L 1259 2753 
L 3481 2753 
L 3481 2222 
L 1259 2222 
L 1259 531 
L 3634 531 
L 3634 0 
L 628 0 
L 628 4666 
z
" transform="scale(0.015625)"/>
      </defs>
      <use xlink:href="#DejaVuSans-45"/>
      <use xlink:href="#DejaVuSans-72" x="63.183594"/>
      <use xlink:href="#DejaVuSans-72" x="102.546875"/>
      <use xlink:href="#DejaVuSans-6f" x="141.410156"/>
     </g>
    </g>
   </g>
   <g id="patch_3">
    <path d="M 56.773846 308.798821 
L 106.164615 308.798821 
L 106.164615 308.39801 
L 56.773846 308.39801 
L 56.773846 308.798821 
z
" clip-path="url(#p9b821498cd)" style="fill: #472563; stroke: #292929; stroke-linejoin: miter"/>
   </g>
   <g id="line2d_26">
    <path d="M 81.469231 308.798821 
L 81.469231 309.05298 
" clip-path="url(#p9b821498cd)" style="fill: none; stroke: #292929"/>
   </g>
   <g id="line2d_27">
    <path d="M 81.469231 308.39801 
L 81.469231 308.113824 
" clip-path="url(#p9b821498cd)" style="fill: none; stroke: #292929"/>
   </g>
   <g id="line2d_28">
    <path d="M 69.121538 309.05298 
L 93.816923 309.05298 
" clip-path="url(#p9b821498cd)" style="fill: none; stroke: #292929; stroke-linecap: square"/>
   </g>
   <g id="line2d_29">
    <path d="M 69.121538 308.113824 
L 93.816923 308.113824 
" clip-path="url(#p9b821498cd)" style="fill: none; stroke: #292929; stroke-linecap: square"/>
   </g>
   <g id="line2d_30">
    <defs>
     <path id="mee22a56edc" d="M 0 3 
C 0.795609 3 1.55874 2.683901 2.12132 2.12132 
C 2.683901 1.55874 3 0.795609 3 0 
C 3 -0.795609 2.683901 -1.55874 2.12132 -2.12132 
C 1.55874 -2.683901 0.795609 -3 0 -3 
C -0.795609 -3 -1.55874 -2.683901 -2.12132 -2.12132 
C -2.683901 -1.55874 -3 -0.795609 -3 0 
C -3 0.795609 -2.683901 1.55874 -2.12132 2.12132 
C -1.55874 2.683901 -0.795609 3 0 3 
z
" style="stroke: #292929"/>
    </defs>
    <g clip-path="url(#p9b821498cd)">
     <use xlink:href="#mee22a56edc" x="81.469231" y="41.255342" style="fill-opacity: 0; stroke: #292929"/>
    </g>
   </g>
   <g id="patch_4">
    <path d="M 118.512308 307.66556 
L 167.903077 307.66556 
L 167.903077 304.938976 
L 118.512308 304.938976 
L 118.512308 307.66556 
z
" clip-path="url(#p9b821498cd)" style="fill: #4b3b75; stroke: #292929; stroke-linejoin: miter"/>
   </g>
   <g id="line2d_31">
    <path d="M 143.207692 307.66556 
L 143.207692 308.327768 
" clip-path="url(#p9b821498cd)" style="fill: none; stroke: #292929"/>
   </g>
   <g id="line2d_32">
    <path d="M 143.207692 304.938976 
L 143.207692 301.907831 
" clip-path="url(#p9b821498cd)" style="fill: none; stroke: #292929"/>
   </g>
   <g id="line2d_33">
    <path d="M 130.86 308.327768 
L 155.555385 308.327768 
" clip-path="url(#p9b821498cd)" style="fill: none; stroke: #292929; stroke-linecap: square"/>
   </g>
   <g id="line2d_34">
    <path d="M 130.86 301.907831 
L 155.555385 301.907831 
" clip-path="url(#p9b821498cd)" style="fill: none; stroke: #292929; stroke-linecap: square"/>
   </g>
   <g id="line2d_35"/>
   <g id="patch_5">
    <path d="M 180.250769 308.72268 
L 229.641538 308.72268 
L 229.641538 306.634177 
L 180.250769 306.634177 
L 180.250769 308.72268 
z
" clip-path="url(#p9b821498cd)" style="fill: #494e7f; stroke: #292929; stroke-linejoin: miter"/>
   </g>
   <g id="line2d_36">
    <path d="M 204.946154 308.72268 
L 204.946154 308.994534 
" clip-path="url(#p9b821498cd)" style="fill: none; stroke: #292929"/>
   </g>
   <g id="line2d_37">
    <path d="M 204.946154 306.634177 
L 204.946154 305.953737 
" clip-path="url(#p9b821498cd)" style="fill: none; stroke: #292929"/>
   </g>
   <g id="line2d_38">
    <path d="M 192.598462 308.994534 
L 217.293846 308.994534 
" clip-path="url(#p9b821498cd)" style="fill: none; stroke: #292929; stroke-linecap: square"/>
   </g>
   <g id="line2d_39">
    <path d="M 192.598462 305.953737 
L 217.293846 305.953737 
" clip-path="url(#p9b821498cd)" style="fill: none; stroke: #292929; stroke-linecap: square"/>
   </g>
   <g id="line2d_40">
    <g clip-path="url(#p9b821498cd)">
     <use xlink:href="#mee22a56edc" x="204.946154" y="298.356839" style="fill-opacity: 0; stroke: #292929"/>
    </g>
   </g>
   <g id="patch_6">
    <path d="M 241.989231 306.987801 
L 291.38 306.987801 
L 291.38 300.371615 
L 241.989231 300.371615 
L 241.989231 306.987801 
z
" clip-path="url(#p9b821498cd)" style="fill: #415d82; stroke: #292929; stroke-linejoin: miter"/>
   </g>
   <g id="line2d_41">
    <path d="M 266.684615 306.987801 
L 266.684615 308.077898 
" clip-path="url(#p9b821498cd)" style="fill: none; stroke: #292929"/>
   </g>
   <g id="line2d_42">
    <path d="M 266.684615 300.371615 
L 266.684615 298.879367 
" clip-path="url(#p9b821498cd)" style="fill: none; stroke: #292929"/>
   </g>
   <g id="line2d_43">
    <path d="M 254.336923 308.077898 
L 279.032308 308.077898 
" clip-path="url(#p9b821498cd)" style="fill: none; stroke: #292929; stroke-linecap: square"/>
   </g>
   <g id="line2d_44">
    <path d="M 254.336923 298.879367 
L 279.032308 298.879367 
" clip-path="url(#p9b821498cd)" style="fill: none; stroke: #292929; stroke-linecap: square"/>
   </g>
   <g id="line2d_45"/>
   <g id="patch_7">
    <path d="M 303.727692 307.892373 
L 353.118462 307.892373 
L 353.118462 297.327064 
L 303.727692 297.327064 
L 303.727692 307.892373 
z
" clip-path="url(#p9b821498cd)" style="fill: #3a6a82; stroke: #292929; stroke-linejoin: miter"/>
   </g>
   <g id="line2d_46">
    <path d="M 328.423077 307.892373 
L 328.423077 308.943327 
" clip-path="url(#p9b821498cd)" style="fill: none; stroke: #292929"/>
   </g>
   <g id="line2d_47">
    <path d="M 328.423077 297.327064 
L 328.423077 288.245961 
" clip-path="url(#p9b821498cd)" style="fill: none; stroke: #292929"/>
   </g>
   <g id="line2d_48">
    <path d="M 316.075385 308.943327 
L 340.770769 308.943327 
" clip-path="url(#p9b821498cd)" style="fill: none; stroke: #292929; stroke-linecap: square"/>
   </g>
   <g id="line2d_49">
    <path d="M 316.075385 288.245961 
L 340.770769 288.245961 
" clip-path="url(#p9b821498cd)" style="fill: none; stroke: #292929; stroke-linecap: square"/>
   </g>
   <g id="line2d_50"/>
   <g id="patch_8">
    <path d="M 365.466154 308.495867 
L 414.856923 308.495867 
L 414.856923 298.367027 
L 365.466154 298.367027 
L 365.466154 308.495867 
z
" clip-path="url(#p9b821498cd)" style="fill: #347681; stroke: #292929; stroke-linejoin: miter"/>
   </g>
   <g id="line2d_51">
    <path d="M 390.161538 308.495867 
L 390.161538 308.761823 
" clip-path="url(#p9b821498cd)" style="fill: none; stroke: #292929"/>
   </g>
   <g id="line2d_52">
    <path d="M 390.161538 298.367027 
L 390.161538 294.84767 
" clip-path="url(#p9b821498cd)" style="fill: none; stroke: #292929"/>
   </g>
   <g id="line2d_53">
    <path d="M 377.813846 308.761823 
L 402.509231 308.761823 
" clip-path="url(#p9b821498cd)" style="fill: none; stroke: #292929; stroke-linecap: square"/>
   </g>
   <g id="line2d_54">
    <path d="M 377.813846 294.84767 
L 402.509231 294.84767 
" clip-path="url(#p9b821498cd)" style="fill: none; stroke: #292929; stroke-linecap: square"/>
   </g>
   <g id="line2d_55"/>
   <g id="patch_9">
    <path d="M 427.204615 305.557485 
L 476.595385 305.557485 
L 476.595385 283.021753 
L 427.204615 283.021753 
L 427.204615 305.557485 
z
" clip-path="url(#p9b821498cd)" style="fill: #2f837f; stroke: #292929; stroke-linejoin: miter"/>
   </g>
   <g id="line2d_56">
    <path d="M 451.9 305.557485 
L 451.9 308.101759 
" clip-path="url(#p9b821498cd)" style="fill: none; stroke: #292929"/>
   </g>
   <g id="line2d_57">
    <path d="M 451.9 283.021753 
L 451.9 255.848954 
" clip-path="url(#p9b821498cd)" style="fill: none; stroke: #292929"/>
   </g>
   <g id="line2d_58">
    <path d="M 439.552308 308.101759 
L 464.247692 308.101759 
" clip-path="url(#p9b821498cd)" style="fill: none; stroke: #292929; stroke-linecap: square"/>
   </g>
   <g id="line2d_59">
    <path d="M 439.552308 255.848954 
L 464.247692 255.848954 
" clip-path="url(#p9b821498cd)" style="fill: none; stroke: #292929; stroke-linecap: square"/>
   </g>
   <g id="line2d_60"/>
   <g id="patch_10">
    <path d="M 488.943077 307.64143 
L 538.333846 307.64143 
L 538.333846 305.106539 
L 488.943077 305.106539 
L 488.943077 307.64143 
z
" clip-path="url(#p9b821498cd)" style="fill: #2f917e; stroke: #292929; stroke-linejoin: miter"/>
   </g>
   <g id="line2d_61">
    <path d="M 513.638462 307.64143 
L 513.638462 308.151894 
" clip-path="url(#p9b821498cd)" style="fill: none; stroke: #292929"/>
   </g>
   <g id="line2d_62">
    <path d="M 513.638462 305.106539 
L 513.638462 305.085628 
" clip-path="url(#p9b821498cd)" style="fill: none; stroke: #292929"/>
   </g>
   <g id="line2d_63">
    <path d="M 501.290769 308.151894 
L 525.986154 308.151894 
" clip-path="url(#p9b821498cd)" style="fill: none; stroke: #292929; stroke-linecap: square"/>
   </g>
   <g id="line2d_64">
    <path d="M 501.290769 305.085628 
L 525.986154 305.085628 
" clip-path="url(#p9b821498cd)" style="fill: none; stroke: #292929; stroke-linecap: square"/>
   </g>
   <g id="line2d_65">
    <g clip-path="url(#p9b821498cd)">
     <use xlink:href="#mee22a56edc" x="513.638462" y="295.549021" style="fill-opacity: 0; stroke: #292929"/>
    </g>
   </g>
   <g id="patch_11">
    <path d="M 550.681538 306.357229 
L 600.072308 306.357229 
L 600.072308 296.714187 
L 550.681538 296.714187 
L 550.681538 306.357229 
z
" clip-path="url(#p9b821498cd)" style="fill: #3da17a; stroke: #292929; stroke-linejoin: miter"/>
   </g>
   <g id="line2d_66">
    <path d="M 575.376923 306.357229 
L 575.376923 308.890511 
" clip-path="url(#p9b821498cd)" style="fill: none; stroke: #292929"/>
   </g>
   <g id="line2d_67">
    <path d="M 575.376923 296.714187 
L 575.376923 283.435969 
" clip-path="url(#p9b821498cd)" style="fill: none; stroke: #292929"/>
   </g>
   <g id="line2d_68">
    <path d="M 563.029231 308.890511 
L 587.724615 308.890511 
" clip-path="url(#p9b821498cd)" style="fill: none; stroke: #292929; stroke-linecap: square"/>
   </g>
   <g id="line2d_69">
    <path d="M 563.029231 283.435969 
L 587.724615 283.435969 
" clip-path="url(#p9b821498cd)" style="fill: none; stroke: #292929; stroke-linecap: square"/>
   </g>
   <g id="line2d_70">
    <g clip-path="url(#p9b821498cd)">
     <use xlink:href="#mee22a56edc" x="575.376923" y="281.777766" style="fill-opacity: 0; stroke: #292929"/>
    </g>
   </g>
   <g id="patch_12">
    <path d="M 612.42 308.327768 
L 661.810769 308.327768 
L 661.810769 307.142495 
L 612.42 307.142495 
L 612.42 308.327768 
z
" clip-path="url(#p9b821498cd)" style="fill: #59b273; stroke: #292929; stroke-linejoin: miter"/>
   </g>
   <g id="line2d_71">
    <path d="M 637.115385 308.327768 
L 637.115385 308.929654 
" clip-path="url(#p9b821498cd)" style="fill: none; stroke: #292929"/>
   </g>
   <g id="line2d_72">
    <path d="M 637.115385 307.142495 
L 637.115385 307.142495 
" clip-path="url(#p9b821498cd)" style="fill: none; stroke: #292929"/>
   </g>
   <g id="line2d_73">
    <path d="M 624.767692 308.929654 
L 649.463077 308.929654 
" clip-path="url(#p9b821498cd)" style="fill: none; stroke: #292929; stroke-linecap: square"/>
   </g>
   <g id="line2d_74">
    <path d="M 624.767692 307.142495 
L 649.463077 307.142495 
" clip-path="url(#p9b821498cd)" style="fill: none; stroke: #292929; stroke-linecap: square"/>
   </g>
   <g id="line2d_75">
    <g clip-path="url(#p9b821498cd)">
     <use xlink:href="#mee22a56edc" x="637.115385" y="303.867647" style="fill-opacity: 0; stroke: #292929"/>
     <use xlink:href="#mee22a56edc" x="637.115385" y="270.25239" style="fill-opacity: 0; stroke: #292929"/>
    </g>
   </g>
   <g id="patch_13">
    <path d="M 674.158462 308.793191 
L 723.549231 308.793191 
L 723.549231 307.434993 
L 674.158462 307.434993 
L 674.158462 308.793191 
z
" clip-path="url(#p9b821498cd)" style="fill: #7bc065; stroke: #292929; stroke-linejoin: miter"/>
   </g>
   <g id="line2d_76">
    <path d="M 698.853846 308.793191 
L 698.853846 309.045741 
" clip-path="url(#p9b821498cd)" style="fill: none; stroke: #292929"/>
   </g>
   <g id="line2d_77">
    <path d="M 698.853846 307.434993 
L 698.853846 306.259908 
" clip-path="url(#p9b821498cd)" style="fill: none; stroke: #292929"/>
   </g>
   <g id="line2d_78">
    <path d="M 686.506154 309.045741 
L 711.201538 309.045741 
" clip-path="url(#p9b821498cd)" style="fill: none; stroke: #292929; stroke-linecap: square"/>
   </g>
   <g id="line2d_79">
    <path d="M 686.506154 306.259908 
L 711.201538 306.259908 
" clip-path="url(#p9b821498cd)" style="fill: none; stroke: #292929; stroke-linecap: square"/>
   </g>
   <g id="line2d_80">
    <g clip-path="url(#p9b821498cd)">
     <use xlink:href="#mee22a56edc" x="698.853846" y="302.490682" style="fill-opacity: 0; stroke: #292929"/>
    </g>
   </g>
   <g id="patch_14">
    <path d="M 735.896923 306.255887 
L 785.287692 306.255887 
L 785.287692 295.35304 
L 735.896923 295.35304 
L 735.896923 306.255887 
z
" clip-path="url(#p9b821498cd)" style="fill: #9ac64d; stroke: #292929; stroke-linejoin: miter"/>
   </g>
   <g id="line2d_81">
    <path d="M 760.592308 306.255887 
L 760.592308 308.393989 
" clip-path="url(#p9b821498cd)" style="fill: none; stroke: #292929"/>
   </g>
   <g id="line2d_82">
    <path d="M 760.592308 295.35304 
L 760.592308 286.28695 
" clip-path="url(#p9b821498cd)" style="fill: none; stroke: #292929"/>
   </g>
   <g id="line2d_83">
    <path d="M 748.244615 308.393989 
L 772.94 308.393989 
" clip-path="url(#p9b821498cd)" style="fill: none; stroke: #292929; stroke-linecap: square"/>
   </g>
   <g id="line2d_84">
    <path d="M 748.244615 286.28695 
L 772.94 286.28695 
" clip-path="url(#p9b821498cd)" style="fill: none; stroke: #292929; stroke-linecap: square"/>
   </g>
   <g id="line2d_85">
    <g clip-path="url(#p9b821498cd)">
     <use xlink:href="#mee22a56edc" x="760.592308" y="257.142807" style="fill-opacity: 0; stroke: #292929"/>
    </g>
   </g>
   <g id="patch_15">
    <path d="M 797.635385 308.431791 
L 847.026154 308.431791 
L 847.026154 305.300108 
L 797.635385 305.300108 
L 797.635385 308.431791 
z
" clip-path="url(#p9b821498cd)" style="fill: #bbc935; stroke: #292929; stroke-linejoin: miter"/>
   </g>
   <g id="line2d_86">
    <path d="M 822.330769 308.431791 
L 822.330769 308.994534 
" clip-path="url(#p9b821498cd)" style="fill: none; stroke: #292929"/>
   </g>
   <g id="line2d_87">
    <path d="M 822.330769 305.300108 
L 822.330769 302.005956 
" clip-path="url(#p9b821498cd)" style="fill: none; stroke: #292929"/>
   </g>
   <g id="line2d_88">
    <path d="M 809.983077 308.994534 
L 834.678462 308.994534 
" clip-path="url(#p9b821498cd)" style="fill: none; stroke: #292929; stroke-linecap: square"/>
   </g>
   <g id="line2d_89">
    <path d="M 809.983077 302.005956 
L 834.678462 302.005956 
" clip-path="url(#p9b821498cd)" style="fill: none; stroke: #292929; stroke-linecap: square"/>
   </g>
   <g id="line2d_90">
    <g clip-path="url(#p9b821498cd)">
     <use xlink:href="#mee22a56edc" x="822.330769" y="41.002523" style="fill-opacity: 0; stroke: #292929"/>
    </g>
   </g>
   <g id="line2d_91">
    <path d="M 56.773846 308.568522 
L 106.164615 308.568522 
" clip-path="url(#p9b821498cd)" style="fill: none; stroke: #292929"/>
   </g>
   <g id="line2d_92">
    <path d="M 118.512308 307.074398 
L 167.903077 307.074398 
" clip-path="url(#p9b821498cd)" style="fill: none; stroke: #292929"/>
   </g>
   <g id="line2d_93">
    <path d="M 180.250769 307.370649 
L 229.641538 307.370649 
" clip-path="url(#p9b821498cd)" style="fill: none; stroke: #292929"/>
   </g>
   <g id="line2d_94">
    <path d="M 241.989231 304.744604 
L 291.38 304.744604 
" clip-path="url(#p9b821498cd)" style="fill: none; stroke: #292929"/>
   </g>
   <g id="line2d_95">
    <path d="M 303.727692 302.595777 
L 353.118462 302.595777 
" clip-path="url(#p9b821498cd)" style="fill: none; stroke: #292929"/>
   </g>
   <g id="line2d_96">
    <path d="M 365.466154 306.547044 
L 414.856923 306.547044 
" clip-path="url(#p9b821498cd)" style="fill: none; stroke: #292929"/>
   </g>
   <g id="line2d_97">
    <path d="M 427.204615 303.257718 
L 476.595385 303.257718 
" clip-path="url(#p9b821498cd)" style="fill: none; stroke: #292929"/>
   </g>
   <g id="line2d_98">
    <path d="M 488.943077 307.227215 
L 538.333846 307.227215 
" clip-path="url(#p9b821498cd)" style="fill: none; stroke: #292929"/>
   </g>
   <g id="line2d_99">
    <path d="M 550.681538 304.485082 
L 600.072308 304.485082 
" clip-path="url(#p9b821498cd)" style="fill: none; stroke: #292929"/>
   </g>
   <g id="line2d_100">
    <path d="M 612.42 308.048139 
L 661.810769 308.048139 
" clip-path="url(#p9b821498cd)" style="fill: none; stroke: #292929"/>
   </g>
   <g id="line2d_101">
    <path d="M 674.158462 308.235809 
L 723.549231 308.235809 
" clip-path="url(#p9b821498cd)" style="fill: none; stroke: #292929"/>
   </g>
   <g id="line2d_102">
    <path d="M 735.896923 298.62065 
L 785.287692 298.62065 
" clip-path="url(#p9b821498cd)" style="fill: none; stroke: #292929"/>
   </g>
   <g id="line2d_103">
    <path d="M 797.635385 307.477621 
L 847.026154 307.477621 
" clip-path="url(#p9b821498cd)" style="fill: none; stroke: #292929"/>
   </g>
   <g id="patch_16">
    <path d="M 50.6 322.455503 
L 50.6 27.6 
" style="fill: none; stroke: #000000; stroke-width: 0.8; stroke-linejoin: miter; stroke-linecap: square"/>
   </g>
   <g id="patch_17">
    <path d="M 853.2 322.455503 
L 853.2 27.6 
" style="fill: none; stroke: #000000; stroke-width: 0.8; stroke-linejoin: miter; stroke-linecap: square"/>
   </g>
   <g id="patch_18">
    <path d="M 50.6 322.455503 
L 853.2 322.455503 
" style="fill: none; stroke: #000000; stroke-width: 0.8; stroke-linejoin: miter; stroke-linecap: square"/>
   </g>
   <g id="patch_19">
    <path d="M 50.6 27.6 
L 853.2 27.6 
" style="fill: none; stroke: #000000; stroke-width: 0.8; stroke-linejoin: miter; stroke-linecap: square"/>
   </g>
   <g id="text_22">
    <!-- Distribuio de Erros por Keypoints (YOLO OKS) - Viridis -->
    <g transform="translate(257.411563 21.6) scale(0.14 -0.14)">
     <defs>
      <path id="DejaVuSans-44" d="M 1259 4147 
L 1259 519 
L 2022 519 
Q 2988 519 3436 956 
Q 3884 1394 3884 2338 
Q 3884 3275 3436 3711 
Q 2988 4147 2022 4147 
L 1259 4147 
z
M 628 4666 
L 1925 4666 
Q 3281 4666 3915 4102 
Q 4550 3538 4550 2338 
Q 4550 1131 3912 565 
Q 3275 0 1925 0 
L 628 0 
L 628 4666 
z
" transform="scale(0.015625)"/>
      <path id="DejaVuSans-e7" d="M 3122 3366 
L 3122 2828 
Q 2878 2963 2633 3030 
Q 2388 3097 2138 3097 
Q 1578 3097 1268 2742 
Q 959 2388 959 1747 
Q 959 1106 1268 751 
Q 1578 397 2138 397 
Q 2388 397 2633 464 
Q 2878 531 3122 666 
L 3122 134 
Q 2881 22 2623 -34 
Q 2366 -91 2075 -91 
Q 1284 -91 818 406 
Q 353 903 353 1747 
Q 353 2603 823 3093 
Q 1294 3584 2113 3584 
Q 2378 3584 2631 3529 
Q 2884 3475 3122 3366 
z
M 2311 0 
Q 2482 -194 2566 -358 
Q 2651 -522 2651 -672 
Q 2651 -950 2463 -1092 
Q 2276 -1234 1907 -1234 
Q 1764 -1234 1628 -1215 
Q 1492 -1197 1357 -1159 
L 1357 -750 
Q 1464 -803 1579 -826 
Q 1695 -850 1842 -850 
Q 2026 -850 2120 -775 
Q 2214 -700 2214 -556 
Q 2214 -463 2146 -327 
Q 2079 -191 1939 0 
L 2311 0 
z
" transform="scale(0.015625)"/>
      <path id="DejaVuSans-e3" d="M 2194 1759 
Q 1497 1759 1228 1600 
Q 959 1441 959 1056 
Q 959 750 1161 570 
Q 1363 391 1709 391 
Q 2188 391 2477 730 
Q 2766 1069 2766 1631 
L 2766 1759 
L 2194 1759 
z
M 3341 1997 
L 3341 0 
L 2766 0 
L 2766 531 
Q 2569 213 2275 61 
Q 1981 -91 1556 -91 
Q 1019 -91 701 211 
Q 384 513 384 1019 
Q 384 1609 779 1909 
Q 1175 2209 1959 2209 
L 2766 2209 
L 2766 2266 
Q 2766 2663 2505 2880 
Q 2244 3097 1772 3097 
Q 1472 3097 1187 3025 
Q 903 2953 641 2809 
L 641 3341 
Q 956 3463 1253 3523 
Q 1550 3584 1831 3584 
Q 2591 3584 2966 3190 
Q 3341 2797 3341 1997 
z
M 1844 4281 
L 1665 4453 
Q 1597 4516 1545 4545 
Q 1494 4575 1453 4575 
Q 1334 4575 1278 4461 
Q 1222 4347 1215 4091 
L 825 4091 
Q 831 4513 990 4742 
Q 1150 4972 1434 4972 
Q 1553 4972 1653 4928 
Q 1753 4884 1869 4781 
L 2047 4609 
Q 2115 4547 2167 4517 
Q 2219 4488 2259 4488 
Q 2378 4488 2434 4602 
Q 2490 4716 2497 4972 
L 2887 4972 
Q 2881 4550 2721 4320 
Q 2562 4091 2278 4091 
Q 2159 4091 2059 4134 
Q 1959 4178 1844 4281 
z
" transform="scale(0.015625)"/>
      <path id="DejaVuSans-20" transform="scale(0.015625)"/>
      <path id="DejaVuSans-28" d="M 1984 4856 
Q 1566 4138 1362 3434 
Q 1159 2731 1159 2009 
Q 1159 1288 1364 580 
Q 1569 -128 1984 -844 
L 1484 -844 
Q 1016 -109 783 600 
Q 550 1309 550 2009 
Q 550 2706 781 3412 
Q 1013 4119 1484 4856 
L 1984 4856 
z
" transform="scale(0.015625)"/>
      <path id="DejaVuSans-59" d="M -13 4666 
L 666 4666 
L 1959 2747 
L 3244 4666 
L 3922 4666 
L 2272 2222 
L 2272 0 
L 1638 0 
L 1638 2222 
L -13 4666 
z
" transform="scale(0.015625)"/>
      <path id="DejaVuSans-4f" d="M 2522 4238 
Q 1834 4238 1429 3725 
Q 1025 3213 1025 2328 
Q 1025 1447 1429 934 
Q 1834 422 2522 422 
Q 3209 422 3611 934 
Q 4013 1447 4013 2328 
Q 4013 3213 3611 3725 
Q 3209 4238 2522 4238 
z
M 2522 4750 
Q 3503 4750 4090 4092 
Q 4678 3434 4678 2328 
Q 4678 1225 4090 567 
Q 3503 -91 2522 -91 
Q 1538 -91 948 565 
Q 359 1222 359 2328 
Q 359 3434 948 4092 
Q 1538 4750 2522 4750 
z
" transform="scale(0.015625)"/>
      <path id="DejaVuSans-4c" d="M 628 4666 
L 1259 4666 
L 1259 531 
L 3531 531 
L 3531 0 
L 628 0 
L 628 4666 
z
" transform="scale(0.015625)"/>
      <path id="DejaVuSans-53" d="M 3425 4513 
L 3425 3897 
Q 3066 4069 2747 4153 
Q 2428 4238 2131 4238 
Q 1616 4238 1336 4038 
Q 1056 3838 1056 3469 
Q 1056 3159 1242 3001 
Q 1428 2844 1947 2747 
L 2328 2669 
Q 3034 2534 3370 2195 
Q 3706 1856 3706 1288 
Q 3706 609 3251 259 
Q 2797 -91 1919 -91 
Q 1588 -91 1214 -16 
Q 841 59 441 206 
L 441 856 
Q 825 641 1194 531 
Q 1563 422 1919 422 
Q 2459 422 2753 634 
Q 3047 847 3047 1241 
Q 3047 1584 2836 1778 
Q 2625 1972 2144 2069 
L 1759 2144 
Q 1053 2284 737 2584 
Q 422 2884 422 3419 
Q 422 4038 858 4394 
Q 1294 4750 2059 4750 
Q 2388 4750 2728 4690 
Q 3069 4631 3425 4513 
z
" transform="scale(0.015625)"/>
      <path id="DejaVuSans-29" d="M 513 4856 
L 1013 4856 
Q 1481 4119 1714 3412 
Q 1947 2706 1947 2009 
Q 1947 1309 1714 600 
Q 1481 -109 1013 -844 
L 513 -844 
Q 928 -128 1133 580 
Q 1338 1288 1338 2009 
Q 1338 2731 1133 3434 
Q 928 4138 513 4856 
z
" transform="scale(0.015625)"/>
      <path id="DejaVuSans-2d" d="M 313 2009 
L 1997 2009 
L 1997 1497 
L 313 1497 
L 313 2009 
z
" transform="scale(0.015625)"/>
      <path id="DejaVuSans-56" d="M 1831 0 
L 50 4666 
L 709 4666 
L 2188 738 
L 3669 4666 
L 4325 4666 
L 2547 0 
L 1831 0 
z
" transform="scale(0.015625)"/>
     </defs>
     <use xlink:href="#DejaVuSans-44"/>
     <use xlink:href="#DejaVuSans-69" x="77.001953"/>
     <use xlink:href="#DejaVuSans-73" x="104.785156"/>
     <use xlink:href="#DejaVuSans-74" x="156.884766"/>
     <use xlink:href="#DejaVuSans-72" x="196.09375"/>
     <use xlink:href="#DejaVuSans-69" x="237.207031"/>
     <use xlink:href="#DejaVuSans-62" x="264.990234"/>
     <use xlink:href="#DejaVuSans-75" x="328.466797"/>
     <use xlink:href="#DejaVuSans-69" x="391.845703"/>
     <use xlink:href="#DejaVuSans-e7" x="419.628906"/>
     <use xlink:href="#DejaVuSans-e3" x="474.609375"/>
     <use xlink:href="#DejaVuSans-6f" x="535.888672"/>
     <use xlink:href="#DejaVuSans-20" x="597.070312"/>
     <use xlink:href="#DejaVuSans-64" x="628.857422"/>
     <use xlink:href="#DejaVuSans-65" x="692.333984"/>
     <use xlink:href="#DejaVuSans-20" x="753.857422"/>
     <use xlink:href="#DejaVuSans-45" x="785.644531"/>
     <use xlink:href="#DejaVuSans-72" x="848.828125"/>
     <use xlink:href="#DejaVuSans-72" x="888.191406"/>
     <use xlink:href="#DejaVuSans-6f" x="927.054688"/>
     <use xlink:href="#DejaVuSans-73" x="988.236328"/>
     <use xlink:href="#DejaVuSans-20" x="1040.335938"/>
     <use xlink:href="#DejaVuSans-70" x="1072.123047"/>
     <use xlink:href="#DejaVuSans-6f" x="1135.599609"/>
     <use xlink:href="#DejaVuSans-72" x="1196.78125"/>
     <use xlink:href="#DejaVuSans-20" x="1237.894531"/>
     <use xlink:href="#DejaVuSans-4b" x="1269.681641"/>
     <use xlink:href="#DejaVuSans-65" x="1330.257812"/>
     <use xlink:href="#DejaVuSans-79" x="1391.78125"/>
     <use xlink:href="#DejaVuSans-70" x="1450.960938"/>
     <use xlink:href="#DejaVuSans-6f" x="1514.4375"/>
     <use xlink:href="#DejaVuSans-69" x="1575.619141"/>
     <use xlink:href="#DejaVuSans-6e" x="1603.402344"/>
     <use xlink:href="#DejaVuSans-74" x="1666.78125"/>
     <use xlink:href="#DejaVuSans-73" x="1705.990234"/>
     <use xlink:href="#DejaVuSans-20" x="1758.089844"/>
     <use xlink:href="#DejaVuSans-28" x="1789.876953"/>
     <use xlink:href="#DejaVuSans-59" x="1828.890625"/>
     <use xlink:href="#DejaVuSans-4f" x="1884.474609"/>
     <use xlink:href="#DejaVuSans-4c" x="1963.185547"/>
     <use xlink:href="#DejaVuSans-4f" x="2015.273438"/>
     <use xlink:href="#DejaVuSans-20" x="2093.984375"/>
     <use xlink:href="#DejaVuSans-4f" x="2125.771484"/>
     <use xlink:href="#DejaVuSans-4b" x="2204.482422"/>
     <use xlink:href="#DejaVuSans-53" x="2270.058594"/>
     <use xlink:href="#DejaVuSans-29" x="2333.535156"/>
     <use xlink:href="#DejaVuSans-20" x="2372.548828"/>
     <use xlink:href="#DejaVuSans-2d" x="2404.335938"/>
     <use xlink:href="#DejaVuSans-20" x="2440.419922"/>
     <use xlink:href="#DejaVuSans-56" x="2472.207031"/>
     <use xlink:href="#DejaVuSans-69" x="2538.365234"/>
     <use xlink:href="#DejaVuSans-72" x="2566.148438"/>
     <use xlink:href="#DejaVuSans-69" x="2607.261719"/>
     <use xlink:href="#DejaVuSans-64" x="2635.044922"/>
     <use xlink:href="#DejaVuSans-69" x="2698.521484"/>
     <use xlink:href="#DejaVuSans-73" x="2726.304688"/>
    </g>
   </g>
  </g>
 </g>
 <defs>
  <clipPath id="p9b821498cd">
   <rect x="50.6" y="27.6" width="802.6" height="294.855503"/>
  </clipPath>
 </defs>
</svg>
